/* XPM */
static char *result[] = {
/* columns rows colors chars-per-pixel */
"50 50 4 1 ",
"  c #000000",
". c #000000",
"X c #000000",
"o c #000000",
/* pixels */
"                                ..................",
"                                ..................",
"                               ...................",
"                             .....................",
"                            ......................",
"                           .......................",
"                           .....................XX",
"                          ......................XX",
"                    ............................XX",
"                   .............................XX",
"                ................................XX",
"             ...................................XX",
"           .....................................XX",
"................................................XX",
"................................................XX",
"................................................XX",
"........................................XXXXXXXXXX",
"........................................XXXXXXXXXX",
"........................................XXXXXXXXXX",
"........................................XXXXXXXXXX",
"......................................XXXXXXXXXXXX",
"......................................XXXXXXXXXXXX",
"....................................XXXXXXXXXXXXXX",
"....................................XXXXXXXXXXXXXX",
"................................XXXXXXXXXXXXXXXXXX",
"................................XXXXXXXXXXXXXXXXXX",
"................................XXXXXXXXXXXXXXXXXX",
"................................XXXXXXXXXXXXXXXXXX",
"..........................XXXXXXXXXXXXXXXXXXXXXXXX",
"..........................XXXXXXXXXXXXXXXXXXXXXXXX",
"........................XXXXXXXXXXXXXXXXXXXXXXXXXX",
"........................XXXXXXXXXXXXXXXXXXXXXXXXXX",
"XXXXXXXXXXXXXXXXXXXXXXXXXXXXXXXXXXXXXXXXXXXXXXXXXX",
"XXXXXXXXXXXXXXXXXXXXXXXXXXXXXXXXXXXXXXXXXXXXXXXXXX",
"XXXXXXXXXXXXXXXXXXXXXXXXXXXXXXXXXXXXXXXXXXXXXXXXXX",
"XXXXXXXXXXXXXXXXXXXXXXXXXXXXXXXXXXXXXXXXXXXXXXXXXX",
"XXXXXXXXXXXXXXXXXXXXXXXXXXXXXXXXXXXXXXXXXXXXXXXXXX",
"XXXXXXXXXXXXXXXXXXXXXXXXXXXXXXXXXXXXXXXXXXXXXXXXXX",
"XXXXXXXXXXXXXXXXXXXXXXXXXXXXXXXXXXXXXXXXXXXXXXXXXX",
"XXXXXXXXXXXXXXXXXXXXXXXXXXXXXXXXXXXXXXXXXXXXXXXXXX",
"XXXXXXXXXXXXXXXXXXXXXXXXXXXXXXXXXXXXXXXXXXXXXXXXXX",
"XXXXXXXXXXXXXXXXXXXXXXXXXXXXXXXXXXXXXXXXXXXXXXXXXX",
"XXXXXXXXXXXXXXXXXXXXXXXXXXXXXXXXXXXXXXXXXXXXXXXXXX",
"XXXXXXXXXXXXXXXXXXXXXXXXXXXXXXXXXXXXXXXXXXXXXXXXXX",
"XXXXXXXXXXXXXXXXXXXXXXXXXXXXXXXXXXXXXXXXXXXXXXXXXX",
"XXXXXXXXXXXXXXXXXXXXXXXXXXXXXXXXXXXXXXXXXXXXXXXXXX",
"XXXXXXXXXXXXXXXXXXXXXXXXXXXXXXXXXXXXXXXXXXXXXXXXXX",
"XXXXXXXXXXXXXXXXXXXXXXXXXXXXXXXXXXXXXXXXXXXXXXXXXX",
"XXXXXXXXXXXXXXXXXXXXXXXXXXXXXXXXXXXXXXXXXXXXXXXXXX",
"XXXXXXXXXXXXXXXXXXXXXXXXXXXXXXXXXXXXXXXXXXXXXXXXXX"
};
