/* XPM */
static char *result[] = {
/* columns rows colors chars-per-pixel */
"50 50 204 2 ",
"   c #150000",
".  c #1B0000",
"X  c #1E0C00",
"o  c #210000",
"O  c #290000",
"+  c #280D02",
"@  c #2A1406",
"#  c #2B170A",
"$  c #27190F",
"%  c #3E1C0B",
"&  c #331707",
"*  c #2F1E14",
"=  c #341F12",
"-  c #3B1E11",
";  c #3A220F",
":  c #352114",
">  c #3D2415",
",  c #3E2810",
"<  c #3B2B1F",
"1  c #3B261A",
"2  c #461D05",
"3  c #431D0A",
"4  c #4C1E0C",
"5  c #4F1C01",
"6  c #511E09",
"7  c #44220E",
"8  c #4C210C",
"9  c #532105",
"0  c #5E2207",
"q  c #55240B",
"w  c #5A250E",
"e  c #5C290E",
"r  c #442514",
"t  c #4B2616",
"y  c #452914",
"u  c #4A2815",
"i  c #462619",
"p  c #4A271D",
"a  c #442919",
"s  c #4B291A",
"d  c #5A2610",
"f  c #552A15",
"g  c #5C2B14",
"h  c #572A15",
"j  c #483018",
"k  c #5A321A",
"l  c #57391F",
"z  c #682B09",
"x  c #7D310D",
"c  c #672F14",
"v  c #6A361C",
"b  c #773B1A",
"n  c #4D3725",
"m  c #5C3C2B",
"M  c #643926",
"N  c #6D3D24",
"B  c #6F3F29",
"V  c #633928",
"C  c #713E25",
"Z  c #723E29",
"A  c #7C3F20",
"S  c #6F4026",
"D  c #6D432E",
"F  c #714127",
"G  c #7B4426",
"H  c #724129",
"J  c #7C452A",
"K  c #7D482D",
"L  c #6D4533",
"P  c #644834",
"I  c #724533",
"U  c #7A4931",
"Y  c #754836",
"T  c #7A5D48",
"R  c #833C16",
"E  c #8B3C14",
"W  c #843D1A",
"Q  c #8A3D19",
"!  c #823312",
"~  c #853B20",
"^  c #83401C",
"/  c #8E431E",
"(  c #92451E",
")  c #9B471E",
"_  c #994519",
"`  c #854223",
"'  c #8C4322",
"]  c #8F4926",
"[  c #82462D",
"{  c #83492D",
"}  c #8E4C2C",
"|  c #844826",
" . c #934523",
".. c #9A4525",
"X. c #934B26",
"o. c #9A4B24",
"O. c #91472A",
"+. c #924B2A",
"@. c #984F2B",
"#. c #8D502E",
"$. c #92502D",
"%. c #99502D",
"&. c #824A31",
"*. c #8E4E31",
"=. c #914D31",
"-. c #8F5031",
";. c #925132",
":. c #9C5432",
">. c #985A36",
",. c #A34E25",
"<. c #A55124",
"1. c #A4512A",
"2. c #A85126",
"3. c #B45E2F",
"4. c #A25A3B",
"5. c #A55635",
"6. c #B45E31",
"7. c #B4622E",
"8. c #B56031",
"9. c #B4633B",
"0. c #BD6B3B",
"q. c #B9643F",
"w. c #8F5C43",
"e. c #855D47",
"r. c #905C44",
"t. c #8A644A",
"y. c #956244",
"u. c #876553",
"i. c #976750",
"p. c #9E6D55",
"a. c #9E6E58",
"s. c #9F7159",
"d. c #AA6747",
"f. c #AD6D46",
"g. c #A76648",
"h. c #AB6648",
"j. c #AD6D4A",
"k. c #A76F4A",
"l. c #B56442",
"z. c #B16E4A",
"x. c #B16D46",
"c. c #AB704C",
"v. c #A4704B",
"b. c #B2714C",
"n. c #A36F56",
"m. c #A36E59",
"M. c #AF6F53",
"N. c #A4715C",
"B. c #AF7A5A",
"V. c #B57453",
"C. c #BB7655",
"Z. c #BD7956",
"A. c #BF7559",
"S. c #BE7A59",
"D. c #997964",
"F. c #BD7E62",
"G. c #C06F40",
"H. c #CC7547",
"J. c #CE7549",
"K. c #CA7549",
"L. c #D17649",
"P. c #D1794A",
"I. c #C17756",
"U. c #C27956",
"Y. c #C0755B",
"T. c #C1795A",
"R. c #CB7A53",
"E. c #AD8069",
"W. c #BB8267",
"Q. c #B68469",
"!. c #B98669",
"~. c #BB886A",
"^. c #B58464",
"/. c #B98B73",
"(. c #BB9375",
"). c #CD885E",
"_. c #D4855D",
"`. c #D6885E",
"'. c #D8895E",
"]. c #ED975C",
"[. c #CE8C63",
"{. c #C88867",
"}. c #D48761",
"|. c #D48B61",
" X c #D98961",
".X c #D78864",
"XX c #DB946A",
"oX c #D49069",
"OX c #C18A75",
"+X c #D59476",
"@X c #E49664",
"#X c #ED9663",
"$X c #EE9964",
"%X c #ED9C6B",
"&X c #EE976C",
"*X c #F39664",
"=X c #F29864",
"-X c #F19669",
";X c #EBA67D",
":X c #D69F80",
">X c #C7A285",
",X c #FABA8C",
"<X c #E9BB97",
"1X c #FFC494",
/* pixels */
"b _.%X#X%X#X%X#X*X*X*X*X*X*X*X*X#X#X=X*X-X&X#X1Xu.l { XX&X=X#X].].=X=X*X*X*X=X=X*X*X*X*X=X=X=X$X%X1X",
"z >.9.6.3.3.6.6.3.3.6.3.6.6.6.6.3.3.3.3.6.8.8.[.T & v 4.6.6.7.7.7.7.8.7.8.8.8.7.8.8.8.7.8.7.8.7.0.XX",
"5 G ' ' ' / '  .( ( / / Q  .Q ( / ( ( _ ( ( ( M.P   g | X.( ( ( ( ( ( ( ( ( ( ( / ( ( ( ( ( ( ( ) H.",
"e J +.+.+.+.=.O.+.+.X.$.@.@.=.@.+.O.X.X.+.X.o.).L   k *.#.%.@.@.@.$.@.@.@.%.$.%.%.%.@.$.%.%.X.@.2.P.",
"q K =.] +.@.@.O.@.X.] ] +.] #.X.$.+.] $.X.( ) U.I . g { } +.X.+.X.X.X.@.@.X.X.@.X.X.@.X.@.X.X.o.<.H.",
"q K +.X.+.+.] @.+.X.X.] +.+.X.} +.] +.X.$.) ) U.L . g { ;.$.+.@.X.$.@.X.%.X.o.X.X.X.X.@.X.@.X.o.<.P.",
"q [ ;.] +.+.] O.+.X.] ] ] +.} X.+.} X.X.X.X.) U.U . c [ ;.+.+.@.+.X.%.X.$.X.@.+.@.+.+.X.@.%.+.X.<.P.",
"q G ;.O.] +.O.O.X.X.$.] +.+.O.] +.} +.X.X.o.) U.L . g } } ] O.@.+.X.$.+.+.$.+.@.%.+.@.+.X.@.+.o.<.H.",
"9 J ;.] +.+.O.O.X.X.X.X.+.@.O.X.] $.] X.$.X...T.L . g { #.} X.X. .X.X.X.X.X.X.+.@.+.X.+.X.X.%.o.<.L.",
"q ` $.O.X.} } +.+.+.] +.+.+.@.O.X.X.] #.#.+.( Y.I . g { #.+.X.X.X.$.+.X.O.+.+.X.+.+.@.+.+.%.+.X.<.L.",
"w J ;.+.] +.+.+.+.+.] O.O.+.+.O.+.X.X.} ] X.o.F.Y . c { } X.O.+.O.X.O.X.+.+.+.} X.+.+.+.+.+.}  .2.L.",
"w G } } } } +.] ] X.$.} X.O.+.+.O.@.+.} ] +.o.T.L . g { } O.@.@.+.} ] } } +.} X.+.+.+.+.+.+.+. .2.L.",
"9 G ;.+.+.$.} +.O.+.] #.X.+.} +.X.O.+.} #.+. .T.U . g #.} } O.X.+.} $.} +.} X.} ] $.] ] } +.]  .,.L.",
"q U ;.+.#.} *.=.} #.#.} #.-.-.} +.*.#.#.-.} +.T.L   f &.#.#.} -.} *.} -.#.-.} -.-.-.-.-.-.-.-.$.:.P.",
"y V H C F N F Z H H F F S C C S S S S S S C b w.n X y N S S S D S C F H F C S H N N F F N N N C G y.",
": r 8 6 9 8 8 8 8 8 8 7 % % 3 8 7 8 8 8 8 q 5 2 : : 7 8 t 8 8 8 9 8 8 8 3 3 2 3 8 8 9 8 9 q 8 8 8 k ",
"# . o O o . o . o o .   * * . o o . o o o o o o . . . o o . o o . o o o   : #   . o . o o . o o . . ",
"n D.OXF.!.!./.Q.~.^.(.P     e./.!.!.!.!.!.!.!.!.!.~.~.!.~.~.~.~.~.Q.~./.P   . u./.~.~.~.~.~.~.!.(.>X",
"k p.F.I.U.A.S.Z.U.b.+XQ.. # r.F.S.U.S.A.U.T.Z.U.T.T.S.U.I.S.T.S.C.S.C.+XE.. 3 y.W.S.S.S.Z.S.Z.Z.{.;X",
"9 v Q Q Q Q W W / ! 5.h.+ % v ^ Q Q Q Q Q Q Q ^ Q Q Q Q Q Q Q Q Q W ! 4.m.O 4 v ^ W Q ^ Q R Q E E 0.",
"w J $.X.@.@.+.%.+.O.l.V.. ; N ;.+.%.%.X.%.+.%.+.X.$.+.$.+.+.%.+.@.%. .j.n.o t Z ;.+.%.$.X.X.%.X.2.P.",
"9 G $.$.+.+.O.X.$./ l.h.. , N ] } ] ] X.X.] X.] X.X.X.X.X.X.] X.X.X.' h.m.. 4 N $.X.} X.+.X.] X.<.L.",
"q G $.X.O.} +.] @.' q.j.. : S ;.} +.X.+.X.+.X.X.X.+.X.O.+.X.X.X.+.@.~ h.N.o 4 Z *.] } } X.X.+.X.1.J.",
"q G $.] } +.+.@.+.~ q.z.. = S } +.X.O.+.+.+.+.+.X.+.+.X.O.O.X.X.X.+. .h.m.o 4 Z =.+.X.+.} +.+. .,.L.",
"9 G +.X.+.} +.X.@.~ q.x.o = N #.] X.O.X.X.X.X.X.X.X.+.X.X.X.X.X. .@./ d.n.o q Z #.X.X.$.X.] X. .,.J.",
"q K ;.+.+.*.+.X.@.O.q.x.o - S } +.+.+.+.+.+.O.+.O.+.+.+.O.+.X.@.+.%.( h.n.o 4 Z } X.X.X.] X.$.X.,.L.",
"q G =.O.*.+.@.@.@.~ q.z.. : C } } +.+.+.O.+.O.} +.+.] O.} +.] O.+...Q h.m.o 4 Z =.+.O.O.X.+.O. .,.L.",
"q J =.O.=.+.O.O.=.~ q.z.. : Z *.+.} } } +.+.+.} } +.+.} O.+.} O.+.+. .h.m.o 4 Z =.O.X.} X.+.+.X.,.J.",
"q G *.=.=.*.O.] $.` 9.f.. : B } } +.O.+.+.+.+.+.+.O.+.O.+.+.O.+.] +.' g.a.o 3 N -.+.$.] +.+.$. .<.J.",
"q Z =.=.=.} } } } ] 9.k.. * N -.] O.O.} +.O.O.+.+.} +.} O.} +.} X.+.' f.s.. 8 Z } } } ] ] } }  .@.K.",
"q K =.=.=.=.=.=.} | 9.k.X : N =.=.} ;.$.+.;.;.#.+.;.+.;.;.+.+.$.O.+.] h.a.o 7 B ;.+.$.+.O.=.O.@.1.P.",
"7 L &.J G J J K K F >.i.. : V U G G K J J J J J J J J J G J G K G | C r.u.. 7 V U J J G J J J G | j.",
"$ < < i i u a a r y r ; : 1 1 a , a r s t s i i > a > y y y i p a a a > : : : 1 a a a a a a a y p + ",
"<     . . . .   . . . .       . .   o . o .     : # @ .   . . . .   . . . .   . .     . .   .   . T ",
"M y.M.j.j.b.j.b.z.z.j.j.j.j.j.j.z.j.k.v.k.k.B.t.. @ s i.j.f.x.b.f.f.j.j.z.c.c.j.j.b.f.z.x.z.j.c.h.<X",
"z Z..X_.`._.|._..X}.}._.`.|.}.`. X X[.[.|.[.oX+Xm . M OX}.'.'.'.`.'.`.`.'.'.'.`.'.'.'.`. X'. X'.XX,X",
"9 b ~ ~ ^ R ^ W Q W R ^ R W W W ~ W W W W R R V.I . h A ~ W W b W W W W W W W W W W W W W W W Q E G.",
"w K *.=.$.$.O.$.+.+.$.;.$.$.$.+.%.=.=.;.+.@.o.Z.L . g &.:.=.=.=.$.$.=.$.+.#.+.;.} =.;.;.;.+.+.O.1.L.",
"q J *.O.O.+.$.+.+.=.+.+.+.+.=.+.O.+.+.O.+.+.( A.D . e } =.O.=.=.O.+.+.} +.=.+.$.+.+.+.+.+.+.+.X.,.L.",
"w G *.=.+.O.+.O.+.+.O.O.O.O.@.@.@.@.+.+.+.O.o.A.I . e | *.=.O.O.=.O.+.+.+.+.+.O.+.+.+.+.+.+.O.X.,.L.",
"q J *.} +.] +.O.+.+.} X.+.$.+.} $.X.+.+.+.+...U.I o d | } } +.} +.+.+.+.+.+.+.+.+.+.+.O.+.+.+.X.,.H.",
"q J *.} ] } ] +.+.O.+.+.X.+.X.} } +.] +.] @...Y.L . g } #.} #.#.+.+.+.+.+.+.+.+.+.+.+.+.+.+.+.X.,.J.",
"q J *.] +.] O.+.O.@.O.O.@.+.O.O.O.+.+.+.] O...Y.L . g &.+.+.} } } +.=.+.+.+.+.+.=.+.+.+.+.+.@.O.,.H.",
"6 [ *.O.+.] X.O.O.O.+.O.O.X.O.+.O.} +.O.O.@...Y.L . g &.} +.+.+.+.+.O.} +.+.} +.O.+.=.@.+.+...O.,.H.",
"w J =.O.O.X.O.O.+.O.O.] O.O.O.@.O.O.+.+.@.X...A.L . g { } +.+.X.+.} +.$.+.$.+.+.} $.+.+.+.+.+.X.,.J.",
"w G =.O.+.O.X.+.O.O.O.O.X.X.O.O.O.O.O.+.O.O...A.L o g { -.+.+.} +.+.} +.} +.} +.+.+.+.} =.+.O.X.,.H.",
"q G *.O.+.} +.O.+.+.} } O.} O.O.O.=.+.} O.( ( Z.L . g &.=.O.+.O.O.+.+.O.O.+.+.O.O.+.=.O.O.O.+.X.,.H.",
"q U *.*.} } } *.*.*.} *.} } *.*.*.*.*.+.+.X.X.Z.L . k &.=.} *.*.-.*.*.-.=.*.*.*.*.-.=.*.;.=.=.+.1.R.",
"t H &.K [ &.{ { { { K { { K { U [ &.[ [ &.| } n.m . s U J [ [ &.&.{ [ K [ &.&.&.[ U &.[ &.&.[ &.=.z.",
"2 f h q d d w q w w w w w w w w e e w d d q 6 v & + t f d d d w d q w w d d d d d d d d d d d d z c "
};
