/* XPM */
static char *result[] = {
/* columns rows colors chars-per-pixel */
"50 50 210 2 ",
"   c black",
".  c #010101",
"X  c #020202",
"o  c #040404",
"O  c #060606",
"+  c #070707",
"@  c #0B0B0B",
"#  c #0C0C0C",
"$  c gray5",
"%  c #0E0E0E",
"&  c gray6",
"*  c #101010",
"=  c #111111",
"-  c gray7",
";  c #131313",
":  c gray8",
">  c #161616",
",  c gray9",
"<  c gray10",
"1  c #1B1B1B",
"2  c gray11",
"3  c #1E1E1E",
"4  c gray12",
"5  c #202020",
"6  c gray13",
"7  c #222222",
"8  c #232323",
"9  c gray14",
"0  c #252525",
"q  c gray15",
"w  c #272727",
"e  c #282828",
"r  c gray16",
"t  c #2A2A2A",
"y  c gray17",
"u  c #2C2C2C",
"i  c #2D2D2D",
"p  c gray18",
"a  c #2F2F2F",
"s  c gray19",
"d  c #313131",
"f  c #323232",
"g  c gray20",
"h  c #343434",
"j  c #353535",
"k  c gray21",
"l  c #373737",
"z  c gray22",
"x  c #393939",
"c  c #3A3A3A",
"v  c gray23",
"b  c #3C3C3C",
"n  c gray24",
"m  c #3E3E3E",
"M  c #3F3F3F",
"N  c gray25",
"B  c #414141",
"V  c gray26",
"C  c #434343",
"Z  c #444444",
"A  c gray27",
"S  c #464646",
"D  c gray28",
"F  c #484848",
"G  c #494949",
"H  c #4B4B4B",
"J  c #4C4C4C",
"K  c gray30",
"L  c #4E4E4E",
"P  c gray31",
"I  c #515151",
"U  c gray32",
"Y  c #535353",
"T  c #555555",
"R  c #565656",
"E  c gray34",
"W  c #585858",
"Q  c gray35",
"!  c #5B5B5B",
"~  c gray36",
"^  c #5D5D5D",
"/  c #5F5F5F",
"(  c gray38",
")  c #626262",
"_  c gray39",
"`  c #646464",
"'  c #656565",
"]  c gray40",
"[  c #686868",
"{  c DimGray",
"}  c gray42",
"|  c #6D6D6D",
" . c gray43",
".. c gray44",
"X. c gray45",
"o. c #767676",
"O. c #777777",
"+. c gray47",
"@. c gray48",
"#. c #7B7B7B",
"$. c #7C7C7C",
"%. c gray49",
"&. c #7E7E7E",
"*. c gray50",
"=. c #808080",
"-. c #818181",
";. c gray51",
":. c #838383",
">. c #848484",
",. c gray53",
"<. c gray54",
"1. c gray55",
"2. c #8E8E8E",
"3. c #909090",
"4. c gray57",
"5. c #939393",
"6. c #959595",
"7. c gray59",
"8. c #979797",
"9. c #989898",
"0. c gray60",
"q. c #9D9D9D",
"w. c gray62",
"e. c #A0A0A0",
"r. c gray63",
"t. c #A2A2A2",
"y. c gray64",
"u. c #A4A4A4",
"i. c #A5A5A5",
"p. c gray65",
"a. c #A7A7A7",
"s. c #A9A9A9",
"d. c gray67",
"f. c gray68",
"g. c #AEAEAE",
"h. c gray69",
"j. c #B1B1B1",
"k. c #B2B2B2",
"l. c gray70",
"z. c #B4B4B4",
"x. c gray71",
"c. c #B6B6B6",
"v. c #B7B7B7",
"b. c #B9B9B9",
"n. c gray73",
"m. c #BBBBBB",
"M. c #BCBCBC",
"N. c gray74",
"B. c gray75",
"V. c #C0C0C0",
"C. c #C1C1C1",
"Z. c gray76",
"A. c #C3C3C3",
"S. c gray77",
"D. c #C5C5C5",
"F. c #C6C6C6",
"G. c gray78",
"H. c #C8C8C8",
"J. c gray79",
"K. c #CACACA",
"L. c #CBCBCB",
"P. c gray80",
"I. c #CDCDCD",
"U. c #CECECE",
"Y. c gray81",
"T. c #D0D0D0",
"R. c gray82",
"E. c #D2D2D2",
"W. c LightGray",
"Q. c gray83",
"!. c #D5D5D5",
"~. c gray84",
"^. c #D7D7D7",
"/. c #D8D8D8",
"(. c #DADADA",
"). c gray86",
"_. c gainsboro",
"`. c #DDDDDD",
"'. c gray87",
"]. c #DFDFDF",
"[. c gray88",
"{. c #E1E1E1",
"}. c #E2E2E2",
"|. c gray89",
" X c #E4E4E4",
".X c gray90",
"XX c #E6E6E6",
"oX c #E7E7E7",
"OX c gray91",
"+X c #E9E9E9",
"@X c #EAEAEA",
"#X c gray92",
"$X c #ECECEC",
"%X c gray93",
"&X c #EEEEEE",
"*X c #EFEFEF",
"=X c gray94",
"-X c #F1F1F1",
";X c gray95",
":X c #F3F3F3",
">X c gray96",
",X c #F6F6F6",
"<X c gray97",
"1X c #F8F8F8",
"2X c #F9F9F9",
"3X c gray99",
"4X c #FDFDFD",
"5X c #FEFEFE",
"6X c white",
"7X c None",
/* pixels */
"7X7X7XZ                                       s 7X7X0                                     9 7X7X7X7X",
"7X7Xl   S 5.9.8.8.8.8.8.8.8.8.8.8.8.8.8.8.0.}         >.0.8.8.8.8.8.8.8.8.8.8.8.8.8.7.0.,.    l 7X7X",
"7Xl   q.5X6X6X6X6X6X6X6X6X6X6X6X6X6X6X6X6X6X6XK.2.8.XX6X6X6X6X6X6X6X6X6X6X6X6X6X6X6X6X6X6X#X~   7X7X",
"7X  2.6X{.&.$.&.%.%.%.%.$.%.%.%.%.%.%.%.&.o.Z.6X6X6X3Xw.o.&.%.%.%.%.%.%.%.$.%.%.%.$.*.O.9.4X:Xm   7X",
"s   &X$X                @                     l.-X@X#.  -                         u   &   ..6XN.  7X",
"  A 6Xl.  I C Z Z Z A Z F A Z A Z Z A Z Z E 6 ! $XT.  m F Z Z A A Z S A D K C A A D Z J T   @X{.  z ",
"  S 6Xc.  k 7 9 9 9 9 9 5 8 0 7 u p 8 0 6 l , ] &XE.  5 r 9 6 a f 4 y p 6 8 9 8 9 8 8 7 Z   #X{.  j ",
"  A 6Xc.  c e t y t t r f u t r a g p r t f   ` #XT.  0 p t t y y t r r t t t i y r a y h   #X{.  l ",
"  A 6Xc.  c w r e r r e f y e r e w r r r f   ) .XL.  0 p r r r r r r r r r r i t w f s h   #X}.  c ",
"  A 6Xc.  c w w u y r r q e r r r r r r y f   ) XXL.  0 p r r r r r r r r r r e e r e q j   #X{.  k ",
"  A 6Xc.  c w p p t r r p t r t t e r r e f   ) XXL.  9 i r r e r r r r r r r t i t r e j   #X{.  k ",
"  S 6Xx.  c q h u e r e k a e r r t e y p d   ) XXL.  0 i e t y r r r r r r r r d y e w j   #X{.  j ",
"  A 6Xv.  z e w e r r r w r r r r t r t y d   _ XXP.  5 p e u u e r r r r r r r e e t y h   $X{.  j ",
"  G 6Xh.  j w u y y y y y y y y y y y y y h o ~ .XK.  0 r y t y y y y y y y y y y y u y n   OX}.  l ",
", 7 3XU.  r 3 6 6 6 6 6 6 6 6 6 5 8 7 6 6 j   =.OX~.r   y 5 6 7 6 5 7 7 6 8 7 6 6 6 5 y     2XQ.  b ",
"A   D.6Xq.                                  ^ !.[.|.m.X                                   Y.6X:.  7X",
"7X  q >X>Xm.C.P.P.P.P.L.F.G.H.G.G.!.P.P.P.L.{.oX|.|.+X/.E.U.L.P.J.F.J.G.J.Q.I.P.P.P.Y.T.(.6XP.  h 7X",
"7X:   ;X,XG.P./././.^._.@XXX.XXX+X(.^./././.W.R.E.E.R.!.(././.^.{.@X X XoX@X/././.^._.`. X6XD.  v 7X",
"F   v.6Xg.  3 ; % < ,   p.XX[.].1.  1 O * & 3 7 5 5 5 , . $ ,   M A.|.]._.#.  2 * * *   v `.6XX.  7X",
"4 + 2X^.  b B M m A F g   B.$Xt.  P N F M m B M m m m m N m V G   k ^.OX4.  A m M M m F   t 4XU.  N ",
"  F 6Xh.  Z f h h f h T   e.%X+.  M g N h h g h h h h h h h j m P   F.OX(   b g h h g b Y   OX}.  k ",
"  A 6Xv.  z 0 w 0 s 0 n   i.%X*.  g q q w w q w w w w w w w w 0 z   H.OX{   s q w w w 6 n   $X{.  k ",
"  A 6Xc.  c e t e g u z   u.%X%.  j e i r y i r t t t t t r t r j   H.OX[   g r t r t a j   #X{.  k ",
"  A 6Xc.  c e a r e 0 z   u.$X&.  j r r w y x r r r r r r r t q v   H.OX[   f e r r r i j   #X{.  k ",
"  A 6Xc.  x w t r t q M   i.-X&.  j r e p p e r r r r r r r r i a   H.OX[   f e r r r 9 c   #X{.  j ",
"  A 6Xc.  c e r r r q v   i.-X%.  j w e u u e t t r r r r r r u f   H.OX[   f w r w r w l   #X{.  j ",
"  A 6Xc.  v r r r r q z   y.$X&.  j w r e e r t y r r r t r r t d   H.OX[   f u u a r e j   #X{.  k ",
"  A 6Xx.  v w r r r q c   s.&X%.  j w r r r r r r r r r t r r r s   H.OX[   f f u a r w j   #X{.  j ",
"  A 6Xv.  x e r r r q x   a.%X&.  j e r r t r r r r r r r r r t s   H.OX{   f w e e r e h   $X{.  l ",
"  G 6Xj.  j w u u u e b   e.%X@.  a t u y a i y u u u u u y u u l   F.OX'   u u i u u r b   OX}.  h ",
"& w 3XP.  y 9 q 9 9 0 r   c.%X7.  p 4 8 9 8 9 9 9 9 9 7 8 9 8 u     E.+X;.  a 6 e 8 8 u     1X~.  m ",
"v   J.6X6.              4.{.[.(. .                                z. X[.!.^               J.6X<.  7X",
"7X  z ,X<XN.b.F.F.F.S.L.XX X{..X}.F.G.K.D.F.Z.Z.A.A.V.K.J.D.F.S.W.OX}.{.oX].D.F.F.F.F.J.^.6XY.  b 7X",
"7X<   =X<XL.T._._._.`._.!.~.~.!.^._._._._._.+XOX.X.X@X X'.[.).`.(.!.~.~.!.^.`._.`._.`.{.@X6XA.  A 7X",
"H   k.6Xc.  t w q q q q d g f g a q q q y X =._.'.}.J.I < u s t r d u f g p 0 9 0 q y 1 G {.6X|   7X",
"r   1X).  k m c c v c b v z c v c v v c v V   3.oX).G   B n Q H h B U m v c x A C x x Z   z 6XP.  D ",
"  F 6Xh.  S j l l l l V b B x c k l k l l K i W oXR.  z v k g k c v G l l v k n C k k B R   OX|.  x ",
"  A 6Xv.  l 9 q q q 0 8 w i 9 0 q 0 y r 8 g # _ XXL.  q d 0 w q p 0 3 q q e w 8 q e q 7 m   #X{.  l ",
"  A 6Xx.  c e r r e i j r e i y t e h a e f   ) XXL.  9 p t t t e t y t t r t t a y r r m   #X{.  k ",
"  A 6Xc.  c q i a h g s r e g y e r q i a d   ) XXL.  9 u e r r e r r r r r r r l t r e k   #X{.  k ",
"  A 6Xc.  c w t i g t w e i a e r r r t t f   ( .XL.  7 j d q y l r r e r r r r e r r w j   #X{.  l ",
"  A 6Xc.  x w r w y f e r t r r r r r r e f   ) OXP.  8 s a t r i r t p t r r r r r r w j   #X{.  c ",
"  A 6Xc.  c w r r r r r r r r r r r r r r f   / {.S.  0 y i i e y y e x j w r r r r r w j   #X{.  j ",
"  A 6Xv.  l e r r z u e t r r r r r r r r d   ^ ^.B.  3 i r r r t t r e t r r r r r r e j   #X{.  l ",
"  D 6Xj.  b p j f g f g f f f f f f f j g x = P !.n.  i a f f f d z k d f f d j h f f s N   OX}.  g ",
"f   >X].                                      0.}./.!                                     K 6XH.  D ",
"K   p.6XJ.J P P L L L L L L L L L L L L I V y.6X6X6X*Xo.D I L L L L L L L L L L L L I F  .&X5X~   7X",
"7Xa   b.6X6X6X6X6X6X6X6X6X6X6X6X6X6X6X6X6X6X6X'.1.r.<X6X6X6X6X6X6X6X6X6X6X6X6X6X6X6X6X6X6X3X-.  M 7X",
"7X7X2   O.v.m.n.m.m.m.m.m.m.m.m.m.m.m.m.n.M.6.      A d.M.n.m.m.m.m.m.m.m.m.m.m.m.m.n.N.f.G   z 7X7X",
"7X7X7Xu                                       > 7XB                                         l 7X7X7X"
};
