/* XPM */
static char *result[] = {
/* columns rows colors chars-per-pixel */
"50 50 97 2 ",
"   c #B67B00",
".  c #BA7B00",
"X  c #BC8200",
"o  c #BE850F",
"O  c #BD8513",
"+  c #B58018",
"@  c #BD851D",
"#  c #BC8628",
"$  c #BB893E",
"%  c #C38500",
"&  c #C88700",
"*  c #CC8C00",
"=  c #CF9100",
"-  c #D19301",
";  c #D3950A",
":  c #D29417",
">  c #D6971E",
",  c #D7981D",
"<  c #CF912F",
"1  c #D59723",
"2  c #D89924",
"3  c #D5962F",
"4  c #D7992E",
"5  c #D89B2E",
"6  c #D29431",
"7  c #D69933",
"8  c #D89C33",
"9  c #D79A38",
"0  c #D99D3A",
"q  c #DBA035",
"w  c #DBA13C",
"e  c #DFA83E",
"r  c #E1A93C",
"t  c #B78948",
"y  c #BE8F4C",
"u  c #BB8F51",
"i  c #BB955D",
"p  c #BF9869",
"a  c #BE9B72",
"s  c #D79E44",
"d  c #DCA244",
"f  c #DDA840",
"g  c #DDA44A",
"h  c #DAA353",
"j  c #DBA65C",
"k  c #E1AD41",
"l  c #E5B346",
"z  c #E8B747",
"x  c #E6B64B",
"c  c #E9BB4D",
"v  c #E0B05D",
"b  c #E6B95D",
"n  c #C39F75",
"m  c #DFB06E",
"M  c #E3B463",
"N  c #E7BD68",
"B  c #E2B674",
"V  c #E3B97C",
"C  c #EFC345",
"Z  c #EEC34C",
"A  c #F0C545",
"S  c #F0C54B",
"D  c #F1C84F",
"F  c #EEC453",
"G  c #ECC15D",
"H  c #F0C654",
"J  c #F1C956",
"K  c #F1C758",
"L  c #F2CA59",
"P  c #EBC163",
"I  c #F1CB63",
"U  c #E8C27B",
"Y  c #EECA7D",
"T  c #F2CE74",
"R  c #F3D27E",
"E  c #BEA081",
"W  c #C1A68E",
"Q  c #C7AA8A",
"!  c #C1A790",
"~  c #C3AA93",
"^  c #C4AE9A",
"/  c #E4BD83",
"(  c #C1AFA1",
")  c #C6B3A6",
"_  c #C9B7A7",
"`  c #C6B4A8",
"'  c #C8B6A9",
"]  c #C8B8AC",
"[  c #E8C487",
"{  c #E9C68B",
"}  c #EDCC8C",
"|  c #F1CE83",
" . c #F3D282",
".. c #F1D28B",
"X. c #EDCD92",
"o. c #F0D291",
"O. c #C4AEA1",
/* pixels */
"O.O.O.O.O.O.O.O.O.O.O.O.O.O.O.O.O.O.O.O.O.O.O.O.O.O.O.O.O.O.O.O.O.O.O.O.O.O.O.O.O.O.O.O.O.O.O.O.O.O.",
"O.O.O.O.O.O.O.O.O.O.O.O.O.O.O.O.O.O.O.O.O.O.O.O.O.O.O.O.O.O.O.O.O.O.O.O.O.O.O.O.O.O.O.O.O.O.O.O.O.O.",
"O.O.O.O.O.O.O.O.O.O.O.O.O.O.O.O.O.O.O.O.O.O.O.O.O.O.O.O.O.O.O.O.O.O.O.O.O.O.O.O.O.O.O.O.O.O.O.O.O.O.",
"O.O.O.O.O.O.O.O.O.O.O.O.O.O.O.O.O.O.O.O.O.O.O.O.O.O.O.O.O.O.O.O.O.O.O.O.O.O.O.O.O.O.O.O.O.O.O.O.O.O.",
"O.O.O.O.O.O.O.O.O.O.O.O.O.O.O.O.O.O.O.O.O.O.O.O.O.O.O.O.O.O.O.O.O.O.O.O.O.O.O.O.O.O.O.O.O.O.O.O.O.O.",
"O.O.O.O.O.O.O.O.O.O.O.O.O.O.O.O.O.O.O.O.O.O.O.O.O.O.O.O.O.O.O.O.O.O.O.O.O.O.O.O.O.O.O.O.O.O.O.O.O.O.",
"O.O.O.O.O.O.O.O.O.O.O.O.O.O.O.O.O.O.O.O.O.O.O.O.O.O.O.O.O.O.O.O.O.O.O.O.O.O.O.O.O.O.O.O.O.O.O.O.O.O.",
"O.O.O.O.O.O.O.O.O.O.O.O.O.O.O.O.O.O.O.O.O.O.O.O.O.O.O.O.O.O.O.O.O.O.O.O.O.O.O.O.O.O.O.O.O.O.O.O.O.O.",
"O.O.O.O.O.O.O.O.O.O.O.O.O.O.O.O.O.O.O.O.O.O.O.O.O.O.O.O.O.O.O.O.O.O.O.O.O.O.O.O.O.O.O.O.O.O.O.O.O.O.",
"O.O.O.O.O.O.O.O.O.O.O.O.O.O.O.O.O.O.O.O.O.O.O.O.O.O.O.O.O.O.O.O.O.O.O.O.O.O.O.O.O.O.O.O.O.O.O.O.O.O.",
"O.O.O.O.O.O.O.O.O.O.O.O.O.O.O.O.O.O.O.O.O.O.O.O.O.O.O.O.O.O.O.O.O.O.O.O.O.O.O.O.O.O.O.O.O.O.O.O.O.O.",
"O.O.O.O.O.O.O.O.O.O.O.O.O.O.O.O.O.O.O.O.O.O.O.O.O.O.O.O.O.O.O.O.O.O.O.O.O.O.O.O.O.O.O.O.O.O.O.O.O.O.",
"O.O.O.O.O.O.O.O.O.O.O.O.O.O.O.O.O.O.O.O.u X * * * * * % X p ) O.O.O.O.O.O.O.O.O.O.O.O.O.O.O.O.O.O.O.",
"O.O.O.O.O.O.O.O.O.O.O.O.O.O.O.O.O.O.a & 8 d d d d g d d d > % E O.O.O.O.O.O.O.O.O.O.O.O.O.O.O.O.O.O.",
"O.O.O.O.O.O.O.O.O.O.O.O.O.O.O.O.O.. 0 d 0 0 9 7 7 7 7 0 w w d 1 . ` O.O.O.O.O.O.O.O.O.O.O.O.O.O.O.O.",
"O.O.O.O.O.O.O.O.O.O.O.O.O.O.O.! % g w 0 7 3 8 e r r q 8 3 9 0 s s . ` O.O.O.O.O.O.O.O.O.O.O.O.O.O.O.",
"O.O.O.O.O.O.O.O.O.O.O.O.O.O.^ % k 0 0 6 r c H J J L K H z q 6 w 0 k . ] O.O.O.O.O.O.O.O.O.O.O.O.O.O.",
"O.O.O.O.O.O.O.O.O.O.O.O.O.` . g s 9 7 z J H H F z l F H J H r 3 0 s 9   O.O.O.O.O.O.O.O.O.O.O.O.O.O.",
"O.O.O.O.O.O.O.O.O.O.O.O.O.u 4 d 0 5 c L H H F c L f 7 H H H L z 3 0 k * ( O.O.O.O.O.O.O.O.O.O.O.O.O.",
"O.O.O.O.O.O.O.O.O.O.O.O.` % d 0 7 c J H H L c H f 0 6 c H H H L k 7 s 0 o O.O.O.O.O.O.O.O.O.O.O.O.O.",
"O.O.O.O.O.O.O.O.O.O.O.O.n ; d 7 r L F H H H c k 9 w < c J H H H H q 9 d & O.O.O.O.O.O.O.O.O.O.O.O.O.",
"O.O.O.O.O.O.O.O.O.O.O.O.# 0 0 9 S J H H H J c 9 q w 6 c J H H F L z 9 d , E O.O.O.O.O.O.O.O.O.O.O.O.",
"O.O.O.O.O.O.O.O.O.O.O.O.% d 9 e H H H H H H c 0 0 w 6 c J H H H H c 0 0 0 $ O.O.O.O.O.O.O.O.O.O.O.O.",
"O.O.O.O.O.O.O.O.O.O.O.O.% g 7 l J H H H H J c 9 9 w 6 c J H H H H H k 9 w o O.O.O.O.O.O.O.O.O.O.O.O.",
"O.O.O.O.O.O.O.O.O.O.O.O.% g 7 c J H F H F K c 7 q w 6 c K H F K H H k 9 r % O.O.O.O.O.O.O.O.O.O.O.O.",
"O.O.O.O.O.O.O.O.O.O.O.O.& d 0 P H H J H F K c 0 0 w 6 c K H F K H K b 9 d X O.O.O.O.O.O.O.O.O.O.O.O.",
"O.O.O.O.O.O.O.O.O.O.O.O.% g 0 P J H F J F J c 7 0 w < c J F F K H K M 7 0   O.O.O.O.O.O.O.O.O.O.O.O.",
"O.O.O.O.O.O.O.O.O.O.O.O.% d 7 N J F H H H J c 0 0 w < c J J F F D I v 9 8 s O.O.O.O.O.O.O.O.O.O.O.O.",
"O.O.O.O.O.O.O.O.O.O.O.O.$ q 6 M I D K F J J c 0 0 w 6 c J F F J H T h 0 - ~ O.O.O.O.O.O.O.O.O.O.O.O.",
"O.O.O.O.O.O.O.O.O.O.O.O.Q * d g Y D J F F F c 0 w q 6 c J K J F L V 7 k % O.O.O.O.O.O.O.O.O.O.O.O.O.",
"O.O.O.O.O.O.O.O.O.O.O.O.] X g 1 N T C K K K c 9 0 w 6 c J F K A | j 5 0 t O.O.O.O.O.O.O.O.O.O.O.O.O.",
"O.O.O.O.O.O.O.O.O.O.O.O.O.a = d 8 [ T C H K c 0 0 9 < F J F A  .B 1 k % _ O.O.O.O.O.O.O.O.O.O.O.O.O.",
"O.O.O.O.O.O.O.O.O.O.O.O.O.`   d 0 9 { R C C H x w 9 x H A H ..V > d : i O.O.O.O.O.O.O.O.O.O.O.O.O.O.",
"O.O.O.O.O.O.O.O.O.O.O.O.O.O.` . g 9 8 / o.T J D S A H I R X.B , s 9 i O.O.O.O.O.O.O.O.O.O.O.O.O.O.O.",
"O.O.O.O.O.O.O.O.O.O.O.O.O.O.O.( i d d , j / X.} ..} } } V s 2 g 1 i O.O.O.O.O.O.O.O.O.O.O.O.O.O.O.O.",
"O.O.O.O.O.O.O.O.O.O.O.O.O.O.O.O.^ i - g w > 9 h j j g 4 2 d d & t O.O.O.O.O.O.O.O.O.O.O.O.O.O.O.O.O.",
"O.O.O.O.O.O.O.O.O.O.O.O.O.O.O.O.O.O.W X * 0 d w q q d d 4 % X O.O.O.O.O.O.O.O.O.O.O.O.O.O.O.O.O.O.O.",
"O.O.O.O.O.O.O.O.O.O.O.O.O.O.O.O.O.O.O.O.^ y X % & & % O i O.O.O.O.O.O.O.O.O.O.O.O.O.O.O.O.O.O.O.O.O.",
"O.O.O.O.O.O.O.O.O.O.O.O.O.O.O.O.O.O.O.O.O.O.O.O.O.O.O.O.O.O.O.O.O.O.O.O.O.O.O.O.O.O.O.O.O.O.O.O.O.O.",
"O.O.O.O.O.O.O.O.O.O.O.O.O.O.O.O.O.O.O.O.O.O.O.O.O.O.O.O.O.O.O.O.O.O.O.O.O.O.O.O.O.O.O.O.O.O.O.O.O.O.",
"O.O.O.O.O.O.O.O.O.O.O.O.O.O.O.O.O.O.O.O.O.O.O.O.O.O.O.O.O.O.O.O.O.O.O.O.O.O.O.O.O.O.O.O.O.O.O.O.O.O.",
"O.O.O.O.O.O.O.O.O.O.O.O.O.O.O.O.O.O.O.O.O.O.O.O.O.O.O.O.O.O.O.O.O.O.O.O.O.O.O.O.O.O.O.O.O.O.O.O.O.O.",
"O.O.O.O.O.O.O.O.O.O.O.O.O.O.O.O.O.O.O.O.O.O.O.O.O.O.O.O.O.O.O.O.O.O.O.O.O.O.O.O.O.O.O.O.O.O.O.O.O.O.",
"O.O.O.O.O.O.O.O.O.O.O.O.O.O.O.O.O.O.O.O.O.O.O.O.O.O.O.O.O.O.O.O.O.O.O.O.O.O.O.O.O.O.O.O.O.O.O.O.O.O.",
"O.O.O.O.O.O.O.O.O.O.O.O.O.O.O.O.O.O.O.O.O.O.O.O.O.O.O.O.O.O.O.O.O.O.O.O.O.O.O.O.O.O.O.O.O.O.O.O.O.O.",
"O.O.O.O.O.O.O.O.O.O.O.O.O.O.O.O.O.O.O.O.O.O.O.O.O.O.O.O.O.O.O.O.O.O.O.O.O.O.O.O.O.O.O.O.O.O.O.O.O.O.",
"O.O.O.O.O.O.O.O.O.O.O.O.O.O.O.O.O.O.O.O.O.O.O.O.O.O.O.O.O.O.O.O.O.O.O.O.O.O.O.O.O.O.O.O.O.O.O.O.O.O.",
"O.O.O.O.O.O.O.O.O.O.O.O.O.O.O.O.O.O.O.O.O.O.O.O.O.O.O.O.O.O.O.O.O.O.O.O.O.O.O.O.O.O.O.O.O.O.O.O.O.O.",
"O.O.O.O.O.O.O.O.O.O.O.O.O.O.O.O.O.O.O.O.O.O.O.O.O.O.O.O.O.O.O.O.O.O.O.O.O.O.O.O.O.O.O.O.O.O.O.O.O.O.",
"O.O.O.O.O.O.O.O.O.O.O.O.O.O.O.O.O.O.O.O.O.O.O.O.O.O.O.O.O.O.O.O.O.O.O.O.O.O.O.O.O.O.O.O.O.O.O.O.O.O."
};
