/* XPM */
static char *result[] = {
/* columns rows colors chars-per-pixel */
"50 50 239 2 ",
"   c #010002",
".  c #10000F",
"X  c #3A0318",
"o  c #340C16",
"O  c #00002C",
"+  c #311424",
"@  c #32292C",
"#  c #20231C",
"$  c #470419",
"%  c #540910",
"&  c #790001",
"*  c #740010",
"=  c #4E1827",
"-  c #6E122F",
";  c #542F2B",
":  c #682724",
">  c #782927",
",  c #76372B",
"<  c #753938",
"1  c #68372E",
"2  c #584334",
"3  c #745439",
"4  c #716739",
"5  c #787000",
"6  c #1E295E",
"7  c #733443",
"8  c #6D1645",
"9  c #0C5157",
"0  c #3C5955",
"q  c #395152",
"w  c #0F7B79",
"e  c #337774",
"r  c #00577A",
"t  c #4A4A49",
"y  c #4A4957",
"u  c #4B5555",
"i  c #585857",
"p  c #4F534E",
"a  c #764849",
"s  c #695958",
"d  c #7A5858",
"f  c #4C635C",
"g  c #5E635D",
"h  c #77774B",
"j  c #62655C",
"k  c #777658",
"l  c #657553",
"z  c #4F586D",
"x  c #5B6866",
"c  c #597969",
"v  c #516F6F",
"b  c #656564",
"n  c #6C6C6C",
"m  c #676867",
"M  c #766567",
"N  c #6A736C",
"B  c #76756D",
"V  c #657D71",
"C  c #687876",
"Z  c #737374",
"A  c #797A79",
"S  c #880001",
"D  c #980000",
"F  c #86181C",
"G  c #AA0001",
"H  c #B40000",
"J  c #B4000A",
"K  c #B11117",
"L  c #900E2F",
"P  c #AA0032",
"I  c #94292C",
"U  c #963A2A",
"Y  c #9A2D31",
"T  c #89363B",
"R  c #8E332D",
"E  c #AD2C30",
"W  c #A12918",
"Q  c #C30000",
"!  c #C60006",
"~  c #CC0516",
"^  c #D50D1A",
"/  c #E2171F",
"(  c #CD1D28",
")  c #D61B25",
"_  c #CA0431",
"`  c #E31320",
"'  c #CD212A",
"]  c #C82729",
"[  c #D2242C",
"{  c #D42928",
"}  c #CD2B33",
"|  c #D32B32",
" . c #D6353B",
".. c #D2312B",
"X. c #E32824",
"o. c #96492B",
"O. c #925331",
"+. c #A64932",
"@. c #AA5635",
"#. c #B14A2F",
"$. c #8B7037",
"%. c #AE683A",
"&. c #9E7617",
"*. c #CD5C31",
"=. c #D16F36",
"-. c #D15F04",
";. c #A63F44",
":. c #D03E58",
">. c #CB1749",
",. c #894E4D",
"<. c #91784A",
"1. c #B17644",
"2. c #877171",
"3. c #835F60",
"4. c #CD7242",
"5. c #D6676B",
"6. c #D15847",
"7. c #2B827E",
"8. c #70824A",
"9. c #598979",
"0. c #4F907E",
"q. c #658474",
"w. c #78827F",
"e. c #A5980D",
"r. c #B8AC00",
"t. c #B9B100",
"y. c #ADA617",
"u. c #85893A",
"i. c #999437",
"p. c #938F2C",
"a. c #A59C35",
"s. c #A49B39",
"d. c #A59B2C",
"f. c #B4A928",
"g. c #A8A436",
"h. c #BEB431",
"j. c #B4AF2C",
"k. c #DE980D",
"l. c #D1B60B",
"z. c #E2B80D",
"x. c #D98A2E",
"c. c #C5BB27",
"v. c #CAB22E",
"b. c #ECB033",
"n. c #E9843E",
"m. c #D7CD0A",
"M. c #E9DB04",
"N. c #E7D91A",
"B. c #E8C801",
"V. c #EFE302",
"C. c #F2E601",
"Z. c #EEE31A",
"A. c #F4E81B",
"S. c #FFF400",
"D. c #C8C32C",
"F. c #D5CA25",
"G. c #D7D129",
"H. c #E8C825",
"J. c #E8DB26",
"K. c #E8C432",
"L. c #EDE223",
"P. c #EDE429",
"I. c #F2E623",
"U. c #8B864B",
"Y. c #999345",
"T. c #8E8D50",
"R. c #A79550",
"E. c #B2A352",
"W. c #9E9D73",
"Q. c #D0924F",
"!. c #E89756",
"~. c #EF8F47",
"^. c #DBA85D",
"/. c #F6AB5E",
"(. c #E8B453",
"). c #DC956E",
"_. c #C8B568",
"`. c #E5A664",
"'. c #E7B26E",
"]. c #D9C875",
"[. c #CECA72",
"{. c #F8C772",
"}. c #FCDA77",
"|. c #F2CE70",
" X c #FBE67A",
".X c #FBC05F",
"XX c #006FB2",
"oX c #2E69A0",
"OX c #527689",
"+X c #6F7F82",
"@X c #0278C5",
"#X c #817D80",
"$X c #D97996",
"%X c #038584",
"&X c #0B8784",
"*X c #0E8884",
"=X c #178B85",
"-X c #288984",
";X c #328F86",
":X c #3B9588",
">X c #259485",
",X c #36A88E",
"<X c #489788",
"1X c #549887",
"2X c #758282",
"3X c #698C86",
"4X c #55AB95",
"5X c #56B59D",
"6X c #5AB49C",
"7X c #4BAD96",
"8X c #5CBAA2",
"9X c #858887",
"0X c #989797",
"qX c #8C9396",
"wX c #9C9DA7",
"eX c #A7A8A8",
"rX c #AAACB5",
"tX c #B4B6B9",
"yX c #AFB0B6",
"uX c #DD938E",
"iX c #E29690",
"pX c #DE96A8",
"aX c #E19CA4",
"sX c #E5A7B6",
"dX c #FFF988",
"fX c #F2E683",
"gX c #EEDE83",
"hX c #A9BCC2",
"jX c #BDC2C4",
"kX c #ABC8CF",
"lX c #C6C8CA",
"zX c #D4D6D7",
"xX c #CCCED3",
"cX c #E7E7E8",
"vX c #FEFFFF",
"bX c #F5F6F6",
"nX c #EEF0F1",
"mX c #D2E7EF",
"MX c None",
/* pixels */
"MXMXMXMXMXMXMXMXMXMXMXMXMXMXMXMXMXMXMXMXMXMXMXMXMXMXMXMXMXMXMXMXMXMXMXMXMXMXMXMXMXMXMXMXMXMXMXMXMXMX",
"MXMXMXMXMXMXMXMXMXMXMXMXMXMXMXMXMXMXMXMXMXMXMXMX= 1 , , ; MXMXMXMXMXMXMXMXMXMXMXMXMXMXMXMXMXMXMXMXMX",
"MXMXMXMXMXMXMXMXMXMXMXMXMXMXMXMXMXMXMXMXMXMX@ : #.=.~.~.4.< MXMXMXMXMXMXMXMXMXMXMXMXMXMXMXMXMXMXMXMX",
"MXMXMXMXMXMXMXMXMXMXMXMXMXMXMXMXMXMXMXMXMX@ : W #.#.=.~.~.4.: MXMXMXMXMXMXMXMXMXMXMXMXMXMXMXMXMXMXMX",
"MXMXMXMXMXMXMXMXMXMXMXMXMXMXMXMXMXMXMXMXMX+ > R U U #.*.n.~.+.MXMXMXMXMXMXMXMXMXMXMXMXMXMXMXMXMXMXMX",
"MXMXMXMXMXMXMXMXMXMXMXMXMXMXMXMXMXMXMXMXMX= : : : R Y o.+.=.+.MXMXMXMXMXMXMXMXMXMXMXMXMXMXMXMXMXMXMX",
"MXMXMXMXMXMXMXMXMXMXMXMXMXMXMXMXMXMXMXO.3 X X I I $ $ * #.> , 3 <., MXMXMXMXMXMXMXMXMXMXMXMXMXMXMXMX",
"MXMXMXMXMXMXMXMXMXMXMXMXMXMXMXMXMXMX, !.%.  @.}.}.%.+.{.}.Q.. %.{.1.MXMXMXMXMXMXMXMXMXMXMXMXMXMXMXMX",
"MXMXMXMXMXMXMXMXMXMXMXMXMXMXMXMXMXMXO.~.X   Q._.[.{.{.gXW.].1 % /._.MXMXMXMXMXMXMXMXMXMXMXMXMXMXMXMX",
"MXMXMXMXMXMXMXMXMXMXMXMXMXMXMXMXMXMX,.~.o.  _.a U.dXdX_.O ].2 @.'.R.MXMXMXMXMXMXMXMXMXMXMXMXMXMXMXMX",
"MXMXMXMXMXMXMXMXMXMXMXMXMXMXMXMXMXMXMX<.@.  ^.<.R.gXgXgX4 ].+ %.R.MXMXMXMXMXMXMXMXMXMXMXMXMXMXMXMXMX",
"MXMXMXMXMXMXMXMXMXMXMXMXMXMXMXMXMXMXMXMX. : !.{.fXgX_.dX}..XO.O y MXMXMXMXMXMXMXMXMXMXMXMXMXMXMXMXMX",
"MXMXMXMXMXMXMXMXMXMXMXMXMXMXMXMXMXMXMXMXMX> !./._.'.].[.'./.#.x Z s MXMXMXMXMXMXMXMXMXMXMXMXMXMXMXMX",
"MXMXMXMXMXMXMXMXMXMXMXMXMXMXMXMXMXMXMXMXMXX +.!./././.`./.4.% MXA m 2XB MXMXMXMXMXMXMXMXMXMXMXMXMXMX",
"MXMXMXMXMXMXMXMXMXMXMXMXMXMXMXMXMXMXMXMXMXMX+ o.%.1.1.+.F $ MXMXA Z hXwXMXMXMXMXMXMXMXMXMXMXMXMXMXMX",
"MXMXMXMXMXMXMXMXMXMXMXMXMXMXMXMXMXMXMXMXMXMXMX. X o.1.Q.E.MXMXMXMXn qXmX+XMXMXMXMXMXMXMXMXMXMXMXMXMX",
"MXMXMXMXMXMXMXMXMXMXMXMXMXMXMXMXMXMXMXMXMXMXo = : %..X X X}.MXw.A A n kX3Xf V b x n z MXMXMXMXMXMXMX",
"MXMXMXMXMXMXMXMXMXMXMXMXMXMXMXMXMXMXMXw.m MXo = % #.|. X X}.MXx A 9Xu > E E } } [ T E.Y.z m MXMXw.MX",
"MXMXMXMXMXMXMXMXMXMXMXMXMXMXMXMXMXMXB OXoXx ; = @ F (.dX X X~.q.A u Y ^ ) ) ) ) ^ L m.M.W.jXj N MXMX",
"MXMXMXMXMXMXMXMXMXx v MXMXMXMXMXMXMXp oX@Xz 2 > : o $.E. X X~.MX0 I ) } | [ [ } E a x i.Y.tXA MXMXMX",
"MXMXMXMXMXMXz <.E.F.v.k MXMXMXv d ;.( t XXoX2 : > : R .  X}.!.e Y [ | ) ! K I % p +Xx Y.v.y Z MXMXMX",
"MXMXMXMXz T.F.V.S.A.A.V.<.e d } ` ` ) , XXoXu = > @.x.@.[.[.d E ) ~ H Y 3.n 0 C M 7 p.A.D.y MXMXMXMX",
"MXMXz k F.C.A.P.J.J.P.D.4 E / / ) ' [ W r XXz 1 : @.n.o.@ ,.J Q I ,.Z A Z y s 9Xi * $.J.R.MXMXMXMXMX",
"MXn h.V.A.P.L.J.L.J.Y.- _ / ' ' ) ( ( ] < q 9 z t R U % % K ,.N 3XC m i 0.3X1X1X1XV y p.k MXMXMXMXMX",
"MXE.S.P.P.L.L.L.c.l P ) { ( ' ' ( ' ' ( ( ] E Y W & = ,.b +X+Xn a I H s 7X8X5X5X8X:XeX#XMXMXMXMXMXMX",
"MXU.h.D.P.L.L.g.< ~ X.( ' ] ' ( ' ' ' | [ ~ ! K ,.3.A +XZ a F J ^ { ~ s 7X6X4X4X8X<X2.9XMXMXMXMXMXMX",
"MXMX6 Y.I.G.u.- ) { ] ..{ _ ' ( [ | ) Q J T M C 3XC d I G ! [ [ ' | { s 7X5X5X5X8X<Xt MXMXMXMXMXMXMX",
"MXMXMXR.m.u.P X.{ ' _ P L < I ( ~ H Y M Z 3XC M Y G H ) | | [ | | Q S 0 A 3X7X5X5X4XZ MXMXMXMXMXMXMX",
"MXMXMXA f T ) P L - 4 a.c.J.p.L d C +XC s T K ! ~ [ | } | | ( H & M tXw.1X4X5X5X5X4Xb MXMXMXMXMXMXMX",
"MXMXMXMXMX8 3 $.j.F.N.A.Z.A.v.- j M < K ! ^ ' |  . .[ ~ H D < 9XxXbXvX9X,X5X4X4X5X4Xm MXMXMXMXMXMXMX",
"MXMXMXZ U.j.H.Z.A.L.I.I.J.G.4 P ~ H ( [  . .:.[ Q G S 3 9XtXcXvXvXvXvX9X7X6X7X4X8X4Xm MXMXMXMXMXMXMX",
"MXMXMXU.C.I.L.Z.L.L.J.h.u.; L .. .:. .[ Q H D & d 0XjXcXvXvXvXvXvXvXnXC :X4X4X4X4X1XM MXMXMXMXMXMXMX",
"MXMXMXT.N.P.I.J.D.i.4 T P } | ~ H D S & d qXtXzXnXvXvXvXvXvXvXvXcXlX9Xi x f q u f m MXMXMXMXMXMXMXMX",
"MXMXMXk N.F.d.4 - S D H G S & a 2.eXlXzXnXvXvXvXvXvXvXvXbXnXzXyXA t m MXMXm yX0Xj MXMXMXMXMXMXMXMXMX",
"MXMXMXMXk b 6 = s 2.0XeXjXzXmXbXvXvXvXvXvXvXvXbXbXnXcXlXrX9Xi t N MXMXMXMXA zXtXi MXMXMXMXMXMXMXMXMX",
"MXMXMXMXMXMXB i m wXjXzXcXnXnXcXcXcXzXcXzXzXlXyX0XA b p MXMXMXMXMXMXMXMXMXj zXtX0 9.N MXMXMXMXMXMXMX",
"MXMXMXMXMXMXMXMXMXMXMX# @ t t t j m i g p p t MXMXMXMXMXMXMXMXM M s N V q.x zXtX9 0.1Xm MXMXMXMXMXMX",
"MXMXMXMXMXMXMXMXMXMXMXMXMXMXMXZ n MXZ MXMXMXMXMXMXMXMXMXs N c c 9.<X<X;X7.f xXyX5 $.:XV MXMXMXMXMXMX",
"MXMXMXMXMXMXMXMXMXMXMXMXMXMXMXMXA MXA MXMXMXMXMXb m c 9.1X1X<X-Xe e l u.p.l xXrXt.h.%Xq.MXMXMXMXMXMX",
"MXMXMXMXMXMXMXMXMXMXMXMXMXMXMXMXZ MXb B m N q.0.1X<X:XoXe f h p.f.c.F.N.V.U.xXrXt.h.&Xq.MXMXMXMXMXMX",
"MXMXMXMXMXMXMXMXMXMXMXMXMXMXMXB g x 9.0.<X:X>Xe e l $.d.j.m.M.N.H.k.k.H.Z.U.xXrXt.h.%Xq.MXMXMXMXMXMX",
"MXMXMXMXMXMXMXMXMXMXM N V q.1X1X:X-X7.e q.8.p.r.l.m.V.M.M.J.K.H.x.>._ x.N.T.xXyXt.h.7.q.MXMXMXMXMXMX",
"MXMXMXMXMXMXMXMXMXm 1X<X;X-Xe e l p.e.r.l.B.K.K.K.(.).).uXiXuXz.6.aXuX*.N.$.jXwXt.h.%Xq.MXMXMXMXMXMX",
"MXMXMXMXMXMXMXMXMX1X0.f h i.y.l.Q.^.`.'.).iX5.sXpXpXuXsXsX$X).B.=.:.:.=.J.D.b h N.j.=Xq.MXMXMXMXMXMX",
"MXMXMXMXMXMXMXMXMX<Xl m.G.J.C.'.sXsXsXsXuXaX5.aXuXiX).`.^.(.z.P.k.-.-.b.P.L.m.N.I.f.-XV MXMXMXMXMXMX",
"MXMXMXMXMXMXMXMXMX:XU.V.I.Z.C.b.aX).!.`.^.(.b.B.B.M.V.V.C.C.A.Z.I.J.L.N.Z.Z.I.A.A.f.-XV MXMXMXMXMXMX",
"MXMXMXMXMXMXMXMXMX1Xl d.a.g.g.i.&.e.y.e.y.d.g.g.g.g.g.s.s.s.a.a.a.g.a.g.a.a.a.g.g.$.:XV MXMXMXMXMXMX",
"MXMXMXMXMXMXMXMXMX1X<X*X&X*X*X=X>X=X*X*X%X%X%X%X%X&X*X*X*X*X*X*X&X%X%X7.*X&X*X*X%X7.4XN MXMXMXMXMXMX",
"MXMXMXMXMXMXMXMXMXC V q.q.q.q.q.V q.q.q.q.q.q.q.q.q.q.q.q.q.q.q.q.q.q.q.q.q.q.q.q.q.V MXMXMXMXMXMXMX",
"MXMXMXMXMXMXMXMXMXMXMXMXMXMXMXMXMXMXMXMXMXMXMXMXMXMXMXMXMXMXMXMXMXMXMXMXMXMXMXMXMXMXMXMXMXMXMXMXMXMX"
};
