/* XPM */
static char *result[] = {
/* columns rows colors chars-per-pixel */
"60 60 233 2 ",
"   c #1B1F1B",
".  c #383132",
"X  c #750417",
"o  c #41373D",
"O  c #712532",
"+  c #4E0037",
"@  c #3F473D",
"#  c #745833",
"$  c #747238",
"%  c #656015",
"&  c #743B42",
"*  c #583E49",
"=  c #077974",
"-  c #39746E",
";  c #33776E",
":  c #2A4554",
">  c #544B48",
",  c #495957",
"<  c #595956",
"1  c #4C4E4D",
"2  c #7A5455",
"3  c #6E4D4D",
"4  c #5A6D5C",
"5  c #56625A",
"6  c #5D7958",
"7  c #4C6155",
"8  c #677959",
"9  c #747359",
"0  c #706B52",
"q  c #725E60",
"w  c #4D6561",
"e  c #5B6A66",
"r  c #5A7267",
"t  c #4A7A73",
"y  c #5C7A76",
"u  c #686868",
"i  c #756A68",
"p  c #667568",
"a  c #747269",
"s  c #6A6E74",
"d  c #766E70",
"f  c #697A79",
"g  c #7B7D7B",
"h  c #767775",
"j  c #415373",
"k  c #8B0000",
"l  c #970005",
"z  c #A90000",
"x  c #BC0000",
"c  c #B90003",
"v  c #AE0815",
"b  c #A72400",
"n  c #9A1D23",
"m  c #870036",
"M  c #9D0631",
"N  c #A90335",
"B  c #B50D2A",
"V  c #9F2225",
"C  c #8C3739",
"Z  c #922E38",
"A  c #A83437",
"S  c #B42E33",
"D  c #C70004",
"F  c #CB0115",
"G  c #CD061A",
"H  c #CE121E",
"J  c #D50C10",
"K  c #E4191F",
"L  c #C4002C",
"P  c #CD1B24",
"I  c #CB1824",
"U  c #D21D25",
"Y  c #D21F29",
"T  c #D6022C",
"R  c #CC222A",
"E  c #C82A29",
"W  c #D1242C",
"Q  c #D82625",
"!  c #CE2A31",
"~  c #D32C33",
"^  c #D42730",
"/  c #D43036",
"(  c #D5363C",
")  c #D6352F",
"_  c #E02628",
"`  c #E13022",
"'  c #E71928",
"]  c #845732",
"[  c #8E7331",
"{  c #D46F08",
"}  c #8F3D48",
"|  c #CF3758",
" . c #864547",
".. c #944D4C",
"X. c #B44040",
"o. c #8E6153",
"O. c #857B79",
"+. c #886363",
"@. c #D97773",
"#. c #348378",
"$. c #4A8A7B",
"%. c #568575",
"&. c #5E856B",
"*. c #688276",
"=. c #78857A",
"-. c #688A69",
";. c #A49A10",
":. c #B9AE00",
">. c #BAAB07",
",. c #B7AC1B",
"<. c #88873B",
"1. c #94963B",
"2. c #908C2B",
"3. c #9DA335",
"4. c #ACA435",
"5. c #BCB636",
"6. c #B4AD2F",
"7. c #A19829",
"8. c #CABD02",
"9. c #D2B101",
"0. c #E3AE1F",
"q. c #DB8828",
"w. c #C5BE27",
"e. c #C5BB30",
"r. c #E3AF29",
"t. c #D78A00",
"y. c #CDC300",
"u. c #DED301",
"i. c #D1C000",
"p. c #EBDD00",
"a. c #E5D500",
"s. c #E7D81A",
"d. c #E7C900",
"f. c #EEE400",
"g. c #F3E503",
"h. c #EEE117",
"j. c #F2E61C",
"k. c #F6E91C",
"l. c #FEF104",
"z. c #CAC428",
"x. c #D3CB2D",
"c. c #E6C629",
"v. c #E5DB23",
"b. c #E5DA29",
"n. c #EED633",
"m. c #EEE222",
"M. c #ECE22C",
"N. c #F3E723",
"B. c #8D8D46",
"V. c #898647",
"C. c #908E45",
"Z. c #909145",
"A. c #959647",
"S. c #918F56",
"D. c #9DA14D",
"F. c #A5A64C",
"G. c #868576",
"H. c #9A986F",
"J. c #D69949",
"K. c #E2AC53",
"L. c #E3B449",
"P. c #DE9B6E",
"I. c #DBA360",
"U. c #E3AB6D",
"Y. c #E2A376",
"T. c #DFAB55",
"R. c #E9C148",
"E. c #006599",
"W. c #3F6D9E",
"Q. c #006AAC",
"!. c #3674AC",
"~. c #787F83",
"^. c #617183",
"/. c #566C8C",
"(. c #0B76C1",
"). c #867F81",
"_. c #D9758B",
"`. c #1C8881",
"'. c #278D87",
"]. c #398684",
"[. c #2D928C",
"{. c #36968A",
"}. c #459687",
"|. c #559384",
" X c #5B9585",
".X c #579C89",
"XX c #758A84",
"oX c #6E8D88",
"OX c #56AF98",
"+X c #54A793",
"@X c #4BB39B",
"#X c #55B29B",
"$X c #5AB69F",
"%X c #4CA38F",
"&X c #55B9A1",
"*X c #868584",
"=X c #8B8A8A",
"-X c #868A85",
";X c #888C92",
":X c #979796",
">X c #8B9092",
",X c #A2A39E",
"<X c #909AA4",
"1X c #A39DA2",
"2X c #98A6A9",
"3X c #ABABAD",
"4X c #A3A6A8",
"5X c #B5B7B8",
"6X c #ABADB7",
"7X c #8BA59D",
"8X c #DF9484",
"9X c #DE8D94",
"0X c #E39E92",
"qX c #DE93A8",
"wX c #DD8CA5",
"eX c #E5A8B9",
"rX c #E2A0AA",
"tX c #E59EA9",
"yX c #BBBDC9",
"uX c #ADB1C2",
"iX c #BBC2C2",
"pX c #BAD0D7",
"aX c #C6C7CB",
"sX c #D7D9DB",
"dX c #CED5D5",
"fX c #DFDFE0",
"gX c #DDE2E2",
"hX c #E9EBEC",
"jX c #EDF1F1",
"kX c #FEFEFE",
"lX c #F4F4F6",
"zX c #EFEFF1",
"xX c #C4AEA1",
/* pixels */
"xXxXxXxXxXxXxXxXxXxXxXxXxXxXxXxXxXxXxXxXxXxXxXxXxXxXxXxXxXxXxXxXxXxXxXxXxXxXxXxXxXxXxXxXxXxXxXxXxXxXxXxXxXxXxXxXxXxXxXxX",
"xXxXxXxXxXxXxXxXxXxXxXxXxXxXxXxXxXxXxXxXxXxXxXxXxXxXxXxXxXxXxXxXxXxXxXxXxXxXxXxXxXxXxXxXxXxXxXxXxXxXxXxXxXxXxXxXxXxXxXxX",
"xXxXxXxXxXxXxXxXxXxXxXxXxXxXxXxXxXxXxXxXxXxXxXxXxXxXxXxXxXxXxXxXxXxXxXxXxXxXxXxXxXxXxXxXxXxXxXxXxXxXxXxXxXxXxXxXxXxXxXxX",
"xXxXxXxXxXxXxXxXxXxXxXxXxXxXxXxXxXxXxXxXxXxXxXxXxXxXxXxXxXxXxXxXxXxXxXxXxXxXxXxXxXxXxXxXxXxXxXxXxXxXxXxXxXxXxXxXxXxXxXxX",
"xXxXxXxXxXxXxXxXxXxXxXxXxXxXxXxXxXxXxXxXxXxXxXxXxXxXxXxXxXxXxXxXxXxXxXxXxXxXxXxXxXxXxXxXxXxXxXxXxXxXxXxXxXxXxXxXxXxXxXxX",
"xXxXxXxXxXxXxXxXxXxXxXxXxXxXxXxXxXxXxXxXxXxXxXxXxXxXxXxXxXxXxXxXxXxXxXxXxXxXxXxXxXxXxXxXxXxXxXxXxXxXxXxXxXxXxXxXxXxXxXxX",
"xXxXxXxXxXxXxXxXxXxXxXxXxXxXxXxXxXxXxXxXxXxXxXxXxXxXxXxXxXxXxXxXxXxXxXxXxXxXxXxXxXxXxXxXxXxXxXxXxXxXxXxXxXxXxXxXxXxXxXxX",
"xXxXxXxXxXxXxXxXxXxXxXxXxXxXxXxXxXxXxXxXxXxXxXxXxXxXxXxXxXxXxXxXxXxXxXxXxXxXxXxXxXxXxXxXxXxXxXxXxXxXxXxXxXxXxXxXxXxXxXxX",
"xXxXxXxXxXxXxXxXxXxXxXxXxXxXxXxXxXxXxXxXxXxXxXxXxXxXxXxXxXxXxXxXxXxXxXxXxXxXxXxXxXxXxXxXxXxXxXxXxXxXxXxXxXxXxXxXxXxXxXxX",
"xXxXxXxXxXxXxXxXxXxXxXxXxXxXxXxXxXxXxXxXxXxXxXxXxXxXxXxXxXxXxXxXxXxXxXxXxXxXxXxXxXxXxXxXxXxXxXxXxXxXxXxXxXxXxXxXxXxXxXxX",
"xXxXxXxXxXxXxXxXxXxXxXxXxXxXxXxXxXxXxXxXxXxXxXxXxXxXxXxXxXxXxXxXxXxXxXxXxXxXxXxXxXxXxXxXxXxXxXxXxXxXxXxXxXxXxXxXxXxXxXxX",
"xXxXxXxXxXxXxXxXxXxXxXxXxXxXxXxXxXxXxXxXxXxXxXxXxXxXxXxXxXxXxXxXxXxXxXxXxXxXxXxXxXxXxXxXxXxXxXxXxXxXxXxXxXxXxXxXxXxXxXxX",
"xXxXxXxXxXxXxXxXxXxXxXxXxXxXxXxXxXxXxXxXxXxXxXxXxXxXxXxXxXxXxXxXxXxXu g xXxXxXxXxXxXxXxXxXxXxXxXxXxXxXxXxXxXxXxXxXxXxXxX",
"xXxXxXxXxXxXxXxXxXxXxXxXxXxXxXxXxXxXxXxXxXxXxXxXxXxXxXxXxXxXxXxXxXxX< s u xXxXxXxXxXxXxXxXxXxXxXxXxXxXxXxXxXxXxXxXxXxXxX",
"xXxXxXxXxXxXxXxXxXxXxXxXxXxXxXxXxXxXxXxXxXxXxXxXxXxXxXxXxXxXxXxXxXxXxXg 2X-XxXxXxXxXxXxXxXxXxXxXxXxXxXxXxXxXxXxXxXxXxXxX",
"xXxXxXxXxXxXxXxXxXxXxXxXxXxXxXxXxXxXxXxXxXxXxXxXxXxXxXxXxXxXxXxXxXxXxXd 2XpXG.xXxXxXxXxXxXxXxXxXxXxXxXxXxXxXxXxXxXxXxXxX",
"xXxXxXxXxXxXxXxXxXxXxXxXxXxXxXxXxXxXxXxXxXxXxXxXxXxXxXxXxXxXxXxXxXxXxXu *XpXf 7XXXoX2XxXxXxXxXxXxXxXxXxXxXxXxXxXxXxXxXxX",
"xXxXxXxXxXxXxXxXxXxXxXxXxXxXxXxXxXxXxXxXxXxXxXxXG.,XxXxXxXxXxXxXxXxXs xX, 2 } X.( S o.D.a ~.xXxXxXxXxXxXxXxXxXxXxXxXxXxX",
"xXxXxXxXxXxXxXxXxXxXxXxXxXxXxXxXxXxXxXxXxXxXxXG.W.^.xXxXxXxXxXxXxXxXi e C D K H K T [ p.F.6X=.g xXxXxXxXxXxXxXxXxXxXxXxX",
"xXxXxXxXxXxXxXxXxXxXxXxXxXxXxX<XXXxXxXxXxXxXxX, Q.W.xXxXxXxXxXxXxXxXw 3 P ~ R W ! B # S.;.6Xg xXxXxXxXxXxXxXxXxXxXxXxXxX",
"xXxXxXxXxXxXxXxXxXxXxXxXxX>XH.e.e.9 xXxXxX3 A b Q.!.a xXxXxXxXxXxXxXq H ^ H x S X < ~.e ,.u h xXxXxXxXxXxXxXxXxXxXxXxXxX",
"xXxXxXxXxXxXxXxXxXxXxX<XS.i.g.k.N.p.G.XXA ^ _ J j (.s xXxXxXxXxXxX2 H F x Z i w r a O w.s.9 xXxXxXxXxXxXxXxXxXxXxXxXxXxX",
"xXxXxXxXxXxXxXxXxXxXg w.g.N.M.v.N.5.# G K Y R P & Q./.xXxXxXxX>X..D B  .h f u > ).q X 6.z.;XxXxXxXxXxXxXxXxXxXxXxXxXxXxX",
"xXxXxXxXxXxXxXxXxXH.a.g.M.v.m.v.4.m T Q R P R Y V * : XXXXa +.l n i f f q e .X.X.X%Xt 0 S.xXxXxXxXxXxXxXxXxXxXxXxXxXxXxX",
"xXxXxXxXxXxXxXxXxXz.l.b.v.N.b.<.N _ W R R R Y Y W R S v v n } d oXs 3 V x p &X$X&X&X X1Xg xXxXxXxXxXxXxXxXxXxXxXxXxXxXxX",
"xXxXxXxXxXxXxXxXxXB.4.b.N.x.$ N Q R R ^ R P R ^ ^ F x A +.h f u C z F ^ F r #XOXOX&X$.*XxXxXxXxXxXxXxXxXxXxXxXxXxXxXxXxX",
"xXxXxXxXxXxXxXxXxXxXg f.x.$ N ` Q Q L L R Y W D v ..s y y 2 n x H ~ W / F e +XOXOX&X|.O.xXxXxXxXxXxXxXxXxXxXxXxXxXxXxXxX",
"xXxXxXxXxXxXxXxXxXxXG.F.[ L ` L N m ] $ V I V i f f u } v D Y ! / ~ U z X 5 XX+XOX$X XxXxXxXxXxXxXxXxXxXxXxXxXxXxXxXxXxX",
"xXxXxXxXxXxXxXxXxXxXxX<X} B m # 7.z.s.v.] 3 f s 2 V c H U ^ ( ~ D z O :XsXXX%X#XOX#X XxXxXxXxXxXxXxXxXxXxXxXxXxXxXxXxXxX",
"xXxXxXxXxXxXxXxXxXxXxX>X0 2.w.s.h.j.N.b.# }  .z F Y W / / U c k 2 4XfXkXkXoX@XOXOX#X XxXxXxXxXxXxXxXxXxXxXxXxXxXxXxXxXxX",
"xXxXxXxXxXxXxXxXxXxXxX5.a.m.j.m.h.m.z.$ N U P ~ ~ ~ J x l O =XiXjXkXkXkXlXoX@X$X&X&X XxXxXxXxXxXxXxXxXxXxXxXxXxXxXxXxXxX",
"xXxXxXxXxXxXxXxXxXxX< v.N.v.M.b.5.V.3 N ~ ^ I x z k 3 =XiXhXkXkXkXkXkXlXaX4 $.$.t }.*.xXxXxXxXxXxXxXxXxXxXxXxXxXxXxXxXxX",
"xXxXxXxXxXxXxXxXxXxXxXx.N.c.4.# l z c c z k & O.4XaXhXkXkXkXkXkXkXzXdX>X1 p < i g . xXxXxXxXxXxXxXxXxXxXxXxXxXxXxXxXxXxX",
"xXxXxXxXxXxXxXxXxXxXxXA.D.o + Z ..+.).:X5XdXhXkXkXkXkXkXkXkXzXsX5X*X1 . xXxXxX5XaXxXxXxXxXxXxXxXxXxXxXxXxXxXxXxXxXxXxXxX",
"xXxXxXxXxXxXxXxXxXxXxXxXxX1 > -XiXsXjXkXkXkXkXkXlXzXhXsXaX3X=X=.xX@ xXxXxXxXxX5XaX< p xXxXxXxXxXxXxXxXxXxXxXxXxXxXxXxXxX",
"xXxXxXxXxXxXxXxXxXxXxXxXxXxXxXs d g *X-X*X;X;X-X*Xg h 1   xXxXxXxX*X:X0 +.h 7 3XaX; {.=.xXxXxXxXxXxXxXxXxXxXxXxXxXxXxXxX",
"xXxXxXxXxXxXxXxXxXxXxXxXxXxXxXxXxXxXxXxXxX< xXu xXxXxXxXxXxXxXxXh u *.%.}.%X= ,XpX% 6 .XxXxXxXxXxXxXxXxXxXxXxXxXxXxXxXxX",
"xXxXxXxXxXxXxXxXxXxXxXxXxXxXxXxXxXxXxXxXxXxXxX=.xXxXxXxX=X-X=.oX.X$.`.; t 8 % 3XyX>.F.].xXxXxXxXxXxXxXxXxXxXxXxXxXxXxXxX",
"xXxXxXxXxXxXxXxXxXxXxXxXxXxXxXxXxXxXxXxXxXxXxXh O.G.XXXX X}.#.= - 8 <.,.8.v.8.3XyX>.F.].xXxXxXxXxXxXxXxXxXxXxXxXxXxXxXxX",
"xXxXxXxXxXxXxXxXxXxXxXxXxXxXxXxXxXxXxXxXxX> -.%.|.}.'.= - 6 -.,.8.u.s.0.r.n.8.4XyX>.F.].xXxXxXxXxXxXxXxXxXxXxXxXxXxXxXxX",
"xXxXxXxXxXxXxXxXxXxXxXxXxXxXxXxXxXG.=.%.|.}.#.#.- 6 <.,.y.u.p.a.s.n.r.( L r.8.3XyX:.F.].xXxXxXxXxXxXxXxXxXxXxXxXxXxXxXxX",
"xXxXxXxXxXxXxXxXxXxXxXxXxXxXxX-X%.}.[.#.; &.$ ;.8.9.x.c.R.K.P.Y.9XU.t._.9Xq.8.1XuX:.F.].xXxXxXxXxXxXxXxXxXxXxXxXxXxXxXxX",
"xXxXxXxXxXxXxXxXxXxXxXxXxXxXxXf $.4 -.7.9.J.I.U.Y.0X@.qXqXwXqXeX_.K.9.| | q.s.S.9 u.A.].xXxXxXxXxXxXxXxXxXxXxXxXxXxXxXxX",
"xXxXxXxXxXxXxXxXxXxXxXxXxXxXxX%.-.8.s.M.n.qXeXeXqXqX9X9X8XY.P.T.L.b.n.{ { c.N.s.s.h.D.].xXxXxXxXxXxXxXxXxXxXxXxXxXxXxXxX",
"xXxXxXxXxXxXxXxXxXxXxXxXxXxXxXt -.p.j.h.a.8XP.T.K.L.c.d.a.p.f.g.p.h.h.s.s.h.h.j.m.g.A.].xXxXxXxXxXxXxXxXxXxXxXxXxXxXxXxX",
"xXxXxXxXxXxXxXxXxXxXxXxXxXxXxX%.%.<.B.C.C.[ 2.1.1.1.A.A.A.Z.C.C.C.C.C.C.Z.C.<.C.B.1.8 |.xXxXxXxXxXxXxXxXxXxXxXxXxXxXxXxX",
"xXxXxXxXxXxXxXxXxXxXxXxXxXxXxXr +X{.[.[.'.[.[.[.'.'.[.[.{.[.[.[.[.[.{.[.[.[.[.[.[.[.%X|.xXxXxXxXxXxXxXxXxXxXxXxXxXxXxXxX",
"xXxXxXxXxXxXxXxXxXxXxXxXxXxXxXxX7 4 r p p p p p p r 4 6 e 4 4 4 4 4 4 4 4 4 4 4 4 e 7 h xXxXxXxXxXxXxXxXxXxXxXxXxXxXxXxX",
"xXxXxXxXxXxXxXxXxXxXxXxXxXxXxXxXxXxXxXxXxXxXxXxXxXxXxXxXxXxXxXxXxXxXxXxXxXxXxXxXxXxXxXxXxXxXxXxXxXxXxXxXxXxXxXxXxXxXxXxX",
"xXxXxXxXxXxXxXxXxXxXxXxXxXxXxXxXxXxXxXxXxXxXxXxXxXxXxXxXxXxXxXxXxXxXxXxXxXxXxXxXxXxXxXxXxXxXxXxXxXxXxXxXxXxXxXxXxXxXxXxX",
"xXxXxXxXxXxXxXxXxXxXxXxXxXxXxXxXxXxXxXxXxXxXxXxXxXxXxXxXxXxXxXxXxXxXxXxXxXxXxXxXxXxXxXxXxXxXxXxXxXxXxXxXxXxXxXxXxXxXxXxX",
"xXxXxXxXxXxXxXxXxXxXxXxXxXxXxXxXxXxXxXxXxXxXxXxXxXxXxXxXxXxXxXxXxXxXxXxXxXxXxXxXxXxXxXxXxXxXxXxXxXxXxXxXxXxXxXxXxXxXxXxX",
"xXxXxXxXxXxXxXxXxXxXxXxXxXxXxXxXxXxXxXxXxXxXxXxXxXxXxXxXxXxXxXxXxXxXxXxXxXxXxXxXxXxXxXxXxXxXxXxXxXxXxXxXxXxXxXxXxXxXxXxX",
"xXxXxXxXxXxXxXxXxXxXxXxXxXxXxXxXxXxXxXxXxXxXxXxXxXxXxXxXxXxXxXxXxXxXxXxXxXxXxXxXxXxXxXxXxXxXxXxXxXxXxXxXxXxXxXxXxXxXxXxX",
"xXxXxXxXxXxXxXxXxXxXxXxXxXxXxXxXxXxXxXxXxXxXxXxXxXxXxXxXxXxXxXxXxXxXxXxXxXxXxXxXxXxXxXxXxXxXxXxXxXxXxXxXxXxXxXxXxXxXxXxX",
"xXxXxXxXxXxXxXxXxXxXxXxXxXxXxXxXxXxXxXxXxXxXxXxXxXxXxXxXxXxXxXxXxXxXxXxXxXxXxXxXxXxXxXxXxXxXxXxXxXxXxXxXxXxXxXxXxXxXxXxX",
"xXxXxXxXxXxXxXxXxXxXxXxXxXxXxXxXxXxXxXxXxXxXxXxXxXxXxXxXxXxXxXxXxXxXxXxXxXxXxXxXxXxXxXxXxXxXxXxXxXxXxXxXxXxXxXxXxXxXxXxX",
"xXxXxXxXxXxXxXxXxXxXxXxXxXxXxXxXxXxXxXxXxXxXxXxXxXxXxXxXxXxXxXxXxXxXxXxXxXxXxXxXxXxXxXxXxXxXxXxXxXxXxXxXxXxXxXxXxXxXxXxX",
"xXxXxXxXxXxXxXxXxXxXxXxXxXxXxXxXxXxXxXxXxXxXxXxXxXxXxXxXxXxXxXxXxXxXxXxXxXxXxXxXxXxXxXxXxXxXxXxXxXxXxXxXxXxXxXxXxXxXxXxX",
"xXxXxXxXxXxXxXxXxXxXxXxXxXxXxXxXxXxXxXxXxXxXxXxXxXxXxXxXxXxXxXxXxXxXxXxXxXxXxXxXxXxXxXxXxXxXxXxXxXxXxXxXxXxXxXxXxXxXxXxX"
};
