/* XPM */
static char *result[] = {
/* columns rows colors chars-per-pixel */
"50 50 228 2 ",
"   c black",
".  c #000018",
"X  c #100017",
"o  c #1C0006",
"O  c #260009",
"+  c #330004",
"@  c #2A0C18",
"#  c #350D15",
"$  c #3F001B",
"%  c #350D1A",
"&  c #370716",
"*  c #2C1419",
"=  c #351316",
"-  c #33141B",
";  c #3A141C",
":  c #3D1D1C",
">  c #3B1817",
",  c #000024",
"<  c #00122D",
"1  c #181D26",
"2  c #000337",
"3  c #011733",
"4  c #14002E",
"5  c #351D23",
"6  c #3D1B22",
"7  c #3A1622",
"8  c #042235",
"9  c #1E283B",
"0  c #2A272A",
"q  c #3D2225",
"w  c #362328",
"e  c #262A37",
"r  c #3D2F33",
"t  c #332C37",
"y  c #3C343F",
"u  c #430107",
"i  c #570507",
"p  c #4A021C",
"a  c #4B0D1C",
"s  c #590819",
"d  c #4C151B",
"f  c #431A1C",
"g  c #4B1B1E",
"h  c #43151F",
"j  c #54131B",
"k  c #561B1F",
"l  c #5B1C1C",
"z  c #591519",
"x  c #68151E",
"c  c #691A1E",
"v  c #64061F",
"b  c #5C231E",
"n  c #45201B",
"m  c #63241D",
"M  c #752405",
"N  c #451A22",
"B  c #4B1C21",
"V  c #461924",
"C  c #531D21",
"Z  c #5A1E21",
"A  c #501621",
"S  c #6B1921",
"D  c #671B24",
"F  c #761E27",
"G  c #442225",
"H  c #4C252B",
"J  c #492B2D",
"K  c #472729",
"L  c #552322",
"P  c #5B2627",
"I  c #472B30",
"U  c #522B33",
"Y  c #5F2B31",
"T  c #42353A",
"R  c #473A3C",
"E  c #5B3535",
"W  c #56353B",
"Q  c #573424",
"!  c #652525",
"~  c #6D2A25",
"^  c #692925",
"/  c #722522",
"(  c #742B26",
")  c #7C2A27",
"_  c #7B322B",
"`  c #773227",
"'  c #673E33",
"]  c #7A442F",
"[  c #75613D",
"{  c #142A41",
"}  c #363241",
"|  c #443D43",
" . c #563940",
".. c #3E4247",
"X. c #365762",
"o. c #4A464C",
"O. c #56474B",
"+. c #454752",
"@. c #554D52",
"#. c #594E53",
"$. c #565459",
"%. c #6B4948",
"&. c #7E5A48",
"*. c #645743",
"=. c #6F624A",
"-. c #565F63",
";. c #5B6A72",
":. c #666468",
">. c #70696C",
",. c #8B321C",
"<. c #852D26",
"1. c #802825",
"2. c #8B3226",
"3. c #833529",
"4. c #8B3B2C",
"5. c #863729",
"6. c #933429",
"7. c #933E2C",
"8. c #9B3B2B",
"9. c #9A3727",
"0. c #A33D2C",
"q. c #A93D28",
"w. c #82462E",
"e. c #93432C",
"r. c #99422B",
"t. c #8E512E",
"y. c #9B4931",
"u. c #994430",
"i. c #8E5032",
"p. c #935139",
"a. c #AC422D",
"s. c #A44A2E",
"d. c #A74B2F",
"f. c #B14A2B",
"g. c #AA552E",
"h. c #A44B34",
"j. c #AA4D31",
"k. c #A64630",
"l. c #B24C31",
"z. c #AC5331",
"x. c #AC5932",
"c. c #A55535",
"v. c #B15233",
"b. c #BC5533",
"n. c #B55A35",
"m. c #BD5C34",
"M. c #B05A3B",
"N. c #B2552D",
"B. c #996436",
"V. c #BC6737",
"C. c #B36C36",
"Z. c #C65B3D",
"A. c #C46C39",
"S. c #CC6C3A",
"D. c #C66536",
"F. c #D06B37",
"G. c #CC7A3D",
"H. c #CA7339",
"J. c #D07539",
"K. c #D27A3B",
"L. c #D97839",
"P. c #E07B3D",
"I. c #AF5D40",
"U. c #8D6B4B",
"Y. c #A36E40",
"T. c #BA7B4C",
"R. c #8E6662",
"E. c #D06C43",
"W. c #C87643",
"Q. c #D47E44",
"!. c #E87645",
"~. c #CF813F",
"^. c #DB843E",
"/. c #E2803C",
"(. c #91834D",
"). c #A98B56",
"_. c #AC945D",
"`. c #A2955F",
"'. c #B09A59",
"]. c #A59664",
"[. c #A28B68",
"{. c #B5A763",
"}. c #AFA362",
"|. c #DA8A42",
" X c #DA894F",
".X c #D9864B",
"XX c #DB985A",
"oX c #D08D50",
"OX c #E28E44",
"+X c #E98745",
"@X c #E99A49",
"#X c #F29043",
"$X c #FB9446",
"%X c #E99353",
"&X c #E09856",
"*X c #F38D46",
"=X c #F3A44B",
"-X c #ECAA58",
";X c #F3AB55",
":X c #F8A656",
">X c #EFB059",
",X c #F3B65C",
"<X c #C3A964",
"1X c #D5BC67",
"2X c #FDAE60",
"3X c #EABC69",
"4X c #FCB563",
"5X c #FEBA65",
"6X c #F6B965",
"7X c #DBD077",
"8X c #ECC56B",
"9X c #FBD66F",
"0X c #EBCD77",
"qX c #FAC972",
"wX c #E7D57A",
"eX c #FBDA77",
"rX c #FBC06D",
"tX c #D9E079",
"yX c #FCE57A",
"uX c #FEEC7C",
"iX c #EADF81",
"pX c #ECE582",
"aX c #F4E681",
"sX c #FDE682",
"dX c #FEF283",
"fX c #FEF48C",
"gX c #FFFA8D",
"hX c None",
/* pixels */
"hXhXhXhXhXhXhXhXhXhXhXhXhXhXhXhXhXhXhXhXhXhXhXhXhXhXhXhXhXhXhXhXhXhXhXhXhXhXhXhXhXhXhXhXhXhXhXhXhXhX",
"hXhXhXhXhXhXhXhXhXhXhXhXhXhXhXhXhXhXhXhXhXhXhXhXhXhXhXhXhXhXhXhXhXhXhXhXhXhXhXhXhXhXhXhXhXhXhXhXhXhX",
"hXhXhXhXhXhXhXhXhXhXhXhXhXhXhXhXhXhXhXhXhXhXhXhXhXhXhXhXhXhXhXhXhXhXhXhXhXhXhXhXhXhXhXhXhXhXhXhXhXhX",
"hXhXhXhXhXhXhXhXhXhXhXhXhXhXhXhXhXhXhXhXhXhXhXhXhXhXhXhXhXhXhXhXhXhXhXhXhXhXhXhXhXhXhXhXhXhXhXhXhXhX",
"hXhXhXhXhXhXhXhXhXhXhXhXhXhXhXhXhXhXhXhXhXhXhXhXhXhXhXhXhXhXhXhXhXhXhXhXhXhXhXhXhXhXhXhXhXhXhXhXhXhX",
"hXhXhXhXhXhXhXhXhXhXhXhXhXhXhXhXhXhXhXhXhXhXhXhXhXhXhXhXhXhXhXhXhXhXhXhXhXhXhXhXhXhXhXhXhXhXhXhXhXhX",
"hXhXhXhXhXhXhXhXhXhXhXhXhXhXhXhXhXhXhXhXhXo.} } { 8 { e o.hXhXhXhXhXhXhXhXhXhXhXhXhXhXhXhXhXhXhXhXhX",
"hXhXhXhXhXhXhXhXhXhXhXhXhXhXhXhXhXhXhXo.W ~ 6.n.S.Q.K.A.I.R.;.hXhXhXhXhXhXhXhXhXhXhXhXhXhXhXhXhXhXhX",
"hXhXhXhXhXhXhXhXhXhXhXhXhXhXhXhXhXhXhXG ) 8.l.D.P.*X$X$X/.F.] hXhXhXhXhXhXhXhXhXhXhXhXhXhXhXhXhXhXhX",
"hXhXhXhXhXhXhXhXhXhXhXhXhXhXhXhXhXhX7 / 6.0.q.a.l.D.P./.#X*XD.%.hXhXhXhXhXhXhXhXhXhXhXhXhXhXhXhXhXhX",
"hXhXhXhXhXhXhXhXhXhXhXhXhXhXhXhXhX5 d ) 1.<.9.0.q.a.Z.F.P.*X+Xj.T hXhXhXhXhXhXhXhXhXhXhXhXhXhXhXhXhX",
"hXhXhXhXhXhXhXhXhXhXhXhXhXhXhXhXhX5 a ) <.<.2.2.9.8.q.Z.F.P.L.j.T hXhXhXhXhXhXhXhXhXhXhXhXhXhXhXhXhX",
"hXhXhXhXhXhXhXhXhXhXhXhXhXhX3 , 8 - d m j N G ) 2.2.5.^ ! _ Z.z.w 2 . 2 hXhXhXhXhXhXhXhXhXhXhXhXhXhX",
"hXhXhXhXhXhXhXhXhXhXhXhXhXU i.C._ > d X F Z.9.O j b O 8.E.<.a 4.n B.).B.%.hXhXhXhXhXhXhXhXhXhXhXhXhX",
"hXhXhXhXhXhXhXhXhXhXhXhXhX` .X:Xl.; > r.6XqXrXXXw.) XXqXqX4Xv.% Q @XeX-X] hXhXhXhXhXhXhXhXhXhXhXhXhX",
"hXhXhXhXhXhXhXhXhXhXhXhXhXB.:Xh.L * % +XwXtXpXeX!.%XsXpXiXwX&X$ 6 e.@XeX[ hXhXhXhXhXhXhXhXhXhXhXhXhX",
"hXhXhXhXhXhXhXhXhXhXhXhXhXB.:X9.; - O 8X).*.U.gX8XsXgX`.%.}.wX+ : ( OX9XU.hXhXhXhXhXhXhXhXhXhXhXhXhX",
"hXhXhXhXhXhXhXhXhXhXhXhXhXU.oX.X7.> O 3X_.0 (.gXfXfXgX].4 }.tX+ n oX6X<X=.hXhXhXhXhXhXhXhXhXhXhXhXhX",
"hXhXhXhXhXhXhXhXhXhXhXhXhXhXQ OXs.f o 8X`.  U.fXiXiXgX].  {.wXo Q oX8X0 hXhXhXhXhXhXhXhXhXhXhXhXhXhX",
"hXhXhXhXhXhXhXhXhXhXhXhXhXhXI 3 e % p -X3X8XwXaX[.[.yXpX0X0X3Xs K 3 4 R hXhXhXhXhXhXhXhXhXhXhXhXhXhX",
"hXhXhXhXhXhXhXhXhXhXhXhXhXhXhXhXhX6 Z.:X4X0XdXfXaXaXgXgX0XrX4XE.U hXhXhXhXhXhXhXhXhXhXhXhXhXhXhXhXhX",
"hXhXhXhXhXhXhXhXhXhXhXhXhXhXhXhXhXG k.%X2XT._.<X<X<X<X_.oX5X%Xj.I hXhXhXhXhXhXhXhXhXhXhXhXhXhXhXhXhX",
"hXhXhXhXhXhXhXhXhXhXhXhXhXhXhXhXhX@.P j.+X4X4X6X4X4X4X6X5X%Xz.Y hXhXhXhXhXhXhXhXhXhXhXhXhXhXhXhXhXhX",
"hXhXhXhXhXhXhXhXhXhXhXhXhXhXhXhXhXhXhXH 9.Q. X X X X.X.XW.9. .hXhXhXhXhXhXhXhXhXhXhXhXhXhXhXhXhXhXhX",
"hXhXhXhXhXhXhXhXhXhXhXhXhXhXhXhXhX:.:.>.O.i D x S x x v i O.:.-.;.hXhXhXhXhXhXhXhXhXhXhXhXhXhXhXhXhX",
"hXhXhXhXhXhXhXhXhXhXhXhXhXhXhXhXE z + H 5 @ f k B h B : * w b M c.R.X.hXhXhXhXhXhXhXhXhXhXhXhXhXhXhX",
"hXhXhXhXhXhXhXhXhXhXhXhXhXhXo.P 1.` P d & k e.y.u.y.y.4.N = k h.S.D.p.$.hXhXhXhXhXhXhXhXhXhXhXhXhXhX",
"hXhXhXhXhXhXhXhXhXhXhXhXhX:.z ) ( Z u % ; 3.A.G.J.J.K.V./ > = i ) k.D.] hXhXhXhXhXhXhXhXhXhXhXhXhXhX",
"hXhXhXhXhXhXhXhXhXhXhXhX| ~ 5.( k - T 5 l z.;X=X>X;X,X,XC.$ q | * j 7.A.E.U.hXhXhXhXhXhXhXhXhXhXhXhX",
"hXhXhXhXhXhXhXhXhXhXhX| _ s.z.s.l I hXr m ~.yXyXuXuXuXuX-X,...hXK l h.K.G.D.%.hXhXhXhXhXhXhXhXhXhXhX",
"hXhXhXhXhXhXhXhXhXhXhXt ) S.^.K.e.J hXr c G.9XuXdXdXuXuX-Xq.+.hXU r.K.@X@XJ.m hXhXhXhXhXhXhXhXhXhXhX",
"hXhXhXhXhXhXhXhXhXhXhX..F H.@X|.s.G hX| k x.;X9X1X0XyX,XH.m $.hXH z.OX=X=XA.E hXhXhXhXhXhXhXhXhXhXhX",
"hXhXhXhXhXhXhXhXhXhXhXhXJ D 8.e.. T hXhXr ^ A.V.q.f.~.H.5.1 hXhXhXV u.V.N.E hXhXhXhXhXhXhXhXhXhXhXhX",
"hXhXhXhXhXhXhXhXhXhXhXhXr q G K hXhXo.0 0 # P S _ 3.m m % 1 1 0 hXhXH f J hXhXhXhXhXhXhXhXhXhXhXhXhX",
"hXhXhXhXhXhXhXhXhXhXhXhXhXhXhXhXhXhXb g.5.A % L C C b = Z e.h.B hXhXhXhXhXhXhXhXhXhXhXhXhXhXhXhXhXhX",
"hXhXhXhXhXhXhXhXhXhXhXhXhXhXhXhXhXO.M.^.V.( f 6 V N ; f / V.K.c.hXhXhXhXhXhXhXhXhXhXhXhXhXhXhXhXhXhX",
"hXhXhXhXhXhXhXhXhXhXhXhXhXhXhXhXhXG n.OXx./ B hXhXhXhXL p c.Q.j.- hXhXhXhXhXhXhXhXhXhXhXhXhXhXhXhXhX",
"hXhXhXhXhXhXhXhXhXhXhXhXhXhXhXhXhX@ ! 7.( ^ hXhXhXhXhXB A ` e.( - hXhXhXhXhXhXhXhXhXhXhXhXhXhXhXhXhX",
"hXhXhXhXhXhXhXhXhXhXhXhXhXhXhXhXhX@.K d d q hXhXhXhXhXhX; d k L hXhXhXhXhXhXhXhXhXhXhXhXhXhXhXhXhXhX",
"hXhXhXhXhXhXhXhXhXhXhXhXhXhXhXhXhXhXW l f - hXhXhXhXhXhX7 G b Q hXhXhXhXhXhXhXhXhXhXhXhXhXhXhXhXhXhX",
"hXhXhXhXhXhXhXhXhXhXhXhXhXhXhX6 ! 7.z.v.7.P - hXhXhXhXV Z 7.n.n.n.u.f hXhXhXhXhXhXhXhXhXhXhXhXhXhXhX",
"hXhXhXhXhXhXhXhXhXhXhXhXhXhX6 ~ h.m.u.7.4.<.f hXhXhX* V ~ 6.u.z.|.H.h.G hXhXhXhXhXhXhXhXhXhXhXhXhXhX",
"hXhXhXhXhXhXhXhXhXhXhXhXhXhX$ d ^ ` p Z z L hXhXhXhXhX= j Z j m t.w.` # hXhXhXhXhXhXhXhXhXhXhXhXhXhX",
"hXhXhXhXhXhXhXhXhXhXhXhXhXhX#.#.o.o.#.@.@.| hXhXhXhXhXhX@.@.#.#.| } | #.hXhXhXhXhXhXhXhXhXhXhXhXhXhX",
"hXhXhXhXhXhXhXhXhXhXhXhXhXhXhXhXhXhXhXhXhXhXhXhXhXhXhXhXhXhXhXhXhXhXhXhXhXhXhXhXhXhXhXhXhXhXhXhXhXhX",
"hXhXhXhXhXhXhXhXhXhXhXhXhXhXhXhXhXhXhXhXhXhXhXhXhXhXhXhXhXhXhXhXhXhXhXhXhXhXhXhXhXhXhXhXhXhXhXhXhXhX",
"hXhXhXhXhXhXhXhXhXhXhXhXhXhXhXhXhXhXhXhXhXhXhXhXhXhXhXhXhXhXhXhXhXhXhXhXhXhXhXhXhXhXhXhXhXhXhXhXhXhX",
"hXhXhXhXhXhXhXhXhXhXhXhXhXhXhXhXhXhXhXhXhXhXhXhXhXhXhXhXhXhXhXhXhXhXhXhXhXhXhXhXhXhXhXhXhXhXhXhXhXhX",
"hXhXhXhXhXhXhXhXhXhXhXhXhXhXhXhXhXhXhXhXhXhXhXhXhXhXhXhXhXhXhXhXhXhXhXhXhXhXhXhXhXhXhXhXhXhXhXhXhXhX",
"hXhXhXhXhXhXhXhXhXhXhXhXhXhXhXhXhXhXhXhXhXhXhXhXhXhXhXhXhXhXhXhXhXhXhXhXhXhXhXhXhXhXhXhXhXhXhXhXhXhX"
};
