/* XPM */
static char *result[] = {
/* columns rows colors chars-per-pixel */
"60 60 246 2 ",
"   c #0C0211",
".  c #2E0818",
"X  c #361B36",
"o  c #5A0317",
"O  c #461A1B",
"+  c #50050F",
"@  c #690016",
"#  c #73080B",
"$  c #4F1326",
"%  c #6F002C",
"&  c #532D2A",
"*  c #692627",
"=  c #733427",
"-  c #79383B",
";  c #6D2D32",
":  c #57361E",
">  c #56442F",
",  c #7C5C36",
"<  c #744731",
"1  c #7B6438",
"2  c #662744",
"3  c #374E53",
"4  c #31576E",
"5  c #0D7A75",
"6  c #3E766D",
"7  c #257E7B",
"8  c #195D65",
"9  c #56524D",
"0  c #575855",
"q  c #504A51",
"w  c #795355",
"e  c #70494C",
"r  c #69774B",
"t  c #66635C",
"y  c #6C7D56",
"u  c #6C7C59",
"i  c #687653",
"p  c #797752",
"a  c #6E6E45",
"s  c #575D6A",
"d  c #4E5A70",
"f  c #6A5D61",
"g  c #7B5F61",
"h  c #5D6362",
"j  c #586A65",
"k  c #477366",
"l  c #5B7669",
"z  c #5E797A",
"x  c #4F6B6C",
"c  c #6D6D6B",
"v  c #676765",
"b  c #716F6C",
"n  c #726767",
"m  c #67746C",
"M  c #72726C",
"N  c #767665",
"B  c #656D72",
"V  c #677876",
"C  c #767776",
"Z  c #786F72",
"A  c #596458",
"S  c #830000",
"D  c #970001",
"F  c #8E151D",
"G  c #AC0000",
"H  c #B40000",
"J  c #BB0005",
"K  c #AA0413",
"L  c #B90614",
"P  c #950035",
"I  c #8A0F2D",
"U  c #B8022B",
"Y  c #A70034",
"T  c #B20E2D",
"R  c #9E292B",
"E  c #843625",
"W  c #893937",
"Q  c #92332D",
"!  c #A63D2D",
"~  c #A82A34",
"^  c #AE2C30",
"/  c #AC250D",
"(  c #C60004",
")  c #CB0114",
"_  c #CD0B14",
"`  c #E2131C",
"'  c #C6002C",
"]  c #CA1C26",
"[  c #D71A25",
"{  c #D20034",
"}  c #CD222A",
"|  c #CE2C29",
" . c #D3232B",
".. c #D42829",
"X. c #D32B32",
"o. c #D53339",
"O. c #D63426",
"+. c #E22924",
"@. c #965836",
"#. c #8B482E",
"$. c #AA5533",
"%. c #AE5532",
"&. c #867630",
"*. c #A5693A",
"=. c #B56C3C",
"-. c #817000",
";. c #CB5134",
":. c #D17137",
">. c #CC285A",
",. c #8D5050",
"<. c #8B7B4C",
"1. c #B37442",
"2. c #937369",
"3. c #A84546",
"4. c #C47945",
"5. c #D67649",
"6. c #D66B69",
"7. c #2B887B",
"8. c #1B8B75",
"9. c #6D8457",
"0. c #708853",
"q. c #4B8778",
"w. c #5C8176",
"e. c #5A8778",
"r. c #4A907D",
"t. c #608579",
"y. c #7D827F",
"u. c #B4AA15",
"i. c #9C952A",
"p. c #8D9239",
"a. c #8E8C36",
"s. c #A49B30",
"d. c #ABA538",
"f. c #BDB832",
"g. c #B4AC2B",
"h. c #A99600",
"j. c #DA840E",
"k. c #CABD00",
"l. c #D0B714",
"z. c #E4B510",
"x. c #E6833F",
"c. c #CFB430",
"v. c #E3BB2A",
"b. c #E0AA2A",
"n. c #CEC300",
"m. c #D5C809",
"M. c #E6DB01",
"N. c #E6D802",
"B. c #E6D913",
"V. c #E5D81C",
"C. c #E5C708",
"Z. c #EEE105",
"A. c #F3E704",
"S. c #F5E919",
"D. c #EDE21A",
"F. c #CAC428",
"G. c #D7CE29",
"H. c #D7D024",
"J. c #E7C725",
"K. c #E6DB25",
"L. c #E5C03B",
"P. c #EDE324",
"I. c #EBE129",
"U. c #F2E521",
"Y. c #F3E924",
"T. c #EFE533",
"R. c #888457",
"E. c #978B53",
"W. c #99934E",
"Q. c #A39D4C",
"!. c #A39858",
"~. c #B98D50",
"^. c #8B8C7F",
"/. c #AFAB69",
"(. c #A4A341",
"). c #DC8F51",
"_. c #ED9149",
"`. c #D1AA57",
"'. c #EBA55D",
"]. c #F6A55B",
"[. c #FAB456",
"{. c #E5B651",
"}. c #DD9371",
"|. c #E09D7F",
" X c #E7AC63",
".X c #FABD66",
"XX c #EBB26A",
"oX c #C7A161",
"OX c #D8CB76",
"+X c #EDCE74",
"@X c #FEEB7C",
"#X c #F6EA7F",
"$X c #E7C543",
"%X c #006EAD",
"&X c #3470AB",
"*X c #00639B",
"=X c #4B6789",
"-X c #757F81",
";X c #0577C1",
":X c #DA7D91",
">X c #288C85",
",X c #338984",
"<X c #379688",
"1X c #4A9B8E",
"2X c #46988A",
"3X c #549786",
"4X c #499C90",
"5X c #6C8E85",
"6X c #4AA38F",
"7X c #55AB96",
"8X c #55B29B",
"9X c #58B49D",
"0X c #4CA690",
"qX c #5DB8A1",
"wX c #63A492",
"eX c #898688",
"rX c #979696",
"tX c #8B9093",
"yX c #A2A291",
"uX c #9E9FA0",
"iX c #9AA5A7",
"pX c #9AB6BC",
"aX c #AEB3B6",
"sX c #DD8B9A",
"dX c #DE9594",
"fX c #E09592",
"gX c #E6AC87",
"hX c #DF92A6",
"jX c #E49FAA",
"kX c #E4A2B6",
"lX c #FEF587",
"zX c #F1E683",
"xX c #F5DF80",
"cX c #A8ABC3",
"vX c #BCC8CA",
"bX c #C9CACB",
"nX c #C8CAD5",
"mX c #D5D6D8",
"MX c #CFD0D0",
"NX c #DDDEE1",
"BX c #DEE2E2",
"VX c #E9EBEB",
"CX c #FEFEFE",
"ZX c #F5F5F6",
"AX c #EEF0F1",
"SX c None",
/* pixels */
"SXSXSXSXSXSXSXSXSXSXSXSXSXSXSXSXSXSXSXSXSXSXSXSXSXSXSXSXSXSXSXSXSXSXSXSXSXSXSXSXSXSXSXSXSXSXSXSXSXSXSXSXSXSXSXSXSXSXSXSX",
"SXSXSXSXSXSXSXSXSXSXSXSXSXSXSXSXSXSXSXSXSXSXSXSXSXSXSXSXSXSXSXSXSXSXSXSXSXSXSXSXSXSXSXSXSXSXSXSXSXSXSXSXSXSXSXSXSXSXSXSX",
"SXSXSXSXSXSXSXSXSXSXSXSXSXSXSXSXSXSXSXSXSXSXSXSXSXSXSXSXSXSXSXSXSXSXSXSXSXSXSXSXSXSXSXSXSXSXSXSXSXSXSXSXSXSXSXSXSXSXSXSX",
"SXSXSXSXSXSXSXSXSXSXSXSXSXSXSXSXSXSXSXSXSXSXSXSXSXSXSXSXSXSXSXSXSXSXSXSXSXSXSXSXSXSXSXSXSXSXSXSXSXSXSXSXSXSXSXSXSXSXSXSX",
"SXSXSXSXSXSXSXSXSXSXSXSXSXSXSXSXSXSXSXSXSXSXSXSXSXSXSXSXSXSXSXSXSXSXSXSXSXSXSXSXSXSXSXSXSXSXSXSXSXSXSXSXSXSXSXSXSXSXSXSX",
"SXSXSXSXSXSXSXSXSXSXSXSXSXSXSXSXSXSXSXSXSXSXSXSXSXSXSXSXSXSXSXSXSXSXSXSXSXSXSXSXSXSXSXSXSXSXSXSXSXSXSXSXSXSXSXSXSXSXSXSX",
"SXSXSXSXSXSXSXSXSXSXSXSXSXSXSXSXSXSXSXSXSXSXSXSXSXSXSXSXSXSXSXSXSXSXSXSXSXSXSXSXSXSXSXSXSXSXSXSXSXSXSXSXSXSXSXSXSXSXSXSX",
"SXSXSXSXSXSXSXSXSXSXSXSXSXSXSXSXSXSXSXSXSXSXSXSXSXSXSXSXSXSXSXSXSXSXSXSXSXSXSXSXSXSXSXSXSXSXSXSXSXSXSXSXSXSXSXSXSXSXSXSX",
"SXSXSXSXSXSXSXSXSXSXSXSXSXSXSXSXSXSXSXSXSXSXSXSXSXSXSXSXSXSXSXSXSXSXSXSXSXSXSXSXSXSXSXSXSXSXSXSXSXSXSXSXSXSXSXSXSXSXSXSX",
"SXSXSXSXSXSXSXSXSXSXSXSXSXSXSXSXSXSXSXSXSXSXSXSXSXSXSX& #.$.@.SXSXSXSXSXSXSXSXSXSXSXSXSXSXSXSXSXSXSXSXSXSXSXSXSXSXSXSXSX",
"SXSXSXSXSXSXSXSXSXSXSXSXSXSXSXSXSXSXSXSXSXSXSXSXSXSX* ! :.x._.5.SXSXSXSXSXSXSXSXSXSXSXSXSXSXSXSXSXSXSXSXSXSXSXSXSXSXSXSX",
"SXSXSXSXSXSXSXSXSXSXSXSXSXSXSXSXSXSXSXSXSXSXSXSXSXO E ! %.;.5._.$.SXSXSXSXSXSXSXSXSXSXSXSXSXSXSXSXSXSXSXSXSXSXSXSXSXSXSX",
"SXSXSXSXSXSXSXSXSXSXSXSXSXSXSXSXSXSXSXSXSXSXSXSXSXO E = ! ! ;.x.:.SXSXSXSXSXSXSXSXSXSXSXSXSXSXSXSXSXSXSXSXSXSXSXSXSXSXSX",
"SXSXSXSXSXSXSXSXSXSXSXSXSXSXSXSXSXSXSXSXSXSXSXSX  O o + @ = @ F $..   SXSXSXSXSXSXSXSXSXSXSXSXSXSXSXSXSXSXSXSXSXSXSXSXSX",
"SXSXSXSXSXSXSXSXSXSXSXSXSXSXSXSXSXSXSXSXSXSXSX:.1.  1.'.@.o ).).+ 1.XX#.SXSXSXSXSXSXSXSXSXSXSXSXSXSXSXSXSXSXSXSXSXSXSXSX",
"SXSXSXSXSXSXSXSXSXSXSXSXSXSXSXSXSXSXSXSXSXSX> ).#.+ `.#XXX'.zX+X@.= .X<.SXSXSXSXSXSXSXSXSXSXSXSXSXSXSXSXSXSXSXSXSXSXSXSX",
"SXSXSXSXSXSXSXSXSXSXSXSXSXSXSXSXSXSXSXSXSXSXSX).* < oXa #XlX/.!.!.# [.E.SXSXSXSXSXSXSXSXSXSXSXSXSXSXSXSXSXSXSXSXSXSXSXSX",
"SXSXSXSXSXSXSXSXSXSXSXSXSXSXSXSXSXSXSXSXSXSXSX*.=.> /.& #XzX!.E.E.@.oXSXSXSXSXSXSXSXSXSXSXSXSXSXSXSXSXSXSXSXSXSXSXSXSXSX",
"SXSXSXSXSXSXSXSXSXSXSXSXSXSXSXSXSXSXSXSXSXSXSX. . < '.+XzXOXzX+X1.. 9 SXSXSXSXSXSXSXSXSXSXSXSXSXSXSXSXSXSXSXSXSXSXSXSXSX",
"SXSXSXSXSXSXSXSXSXSXSXSXSXSXSXSXSXSXSXSXSXSXSXSXSX$.[.XXOXOXgX.X).q c M SXSXSXSXSXSXSXSXSXSXSXSXSXSXSXSXSXSXSXSXSXSXSXSX",
"SXSXSXSXSXSXSXSXSXSXSXSXSXSXSXSXSXSXSXSXSXSXSXSXSX$ 5.]. X'. X'.E h C c C SXSXSXSXSXSXSXSXSXSXSXSXSXSXSXSXSXSXSXSXSXSXSX",
"SXSXSXSXSXSXSXSXSXSXSXSXSXSXSXSXSXSXSXSXSXSXSXSXSXSX= 4.).1.=.F SXSXM tXpXSXSXSXSXSXSXSXSXSXSXSXSXSXSXSXSXSXSXSXSXSXSXSX",
"SXSXSXSXSXSXSXSXSXSXSXSXSXSXSXSXSXSXSXSXSXSXSXSXSXSXSX  E *.~.W.SXSXSXm nXiXSXSXSXSXSXSXSXSXSXSXSXSXSXSXSXSXSXSXSXSXSXSX",
"SXSXSXSXSXSXSXSXSXSXSXSXSXSXSXSXSXSXSXSXSXSXSXSXSXSXO : %..X@X#XSXSX^.v iXpX3 V j m s SXSXSXSXSXSXSXSXSXSXSXSXSXSXSXSXSX",
"SXSXSXSXSXSXSXSXSXSXSXSXSXSXSXSXSXSXSXSXSXSXSXSXb SX. O R +X@X@XSXx 2.V ; R ^ X...Y (.Q.v M SX^.SXSXSXSXSXSXSXSXSXSXSXSX",
"SXSXSXSXSXSXSXSXSXSXSXSXSXSXSXSXSXSXSXSXSXSXSX=X&Xt O & # `.lX@X[.SXV 0 ]  .[ [ +.U g.C.rXaX0 SXSXSXSXSXSXSXSXSXSXSXSXSX",
"SXSXSXSXSXSXSXSXSXSXSXSXSXSXSXs d SXSXSXSXSXA 4 ;Xd ; * . 1 `.lX[.SX3 T  .} ] ] ^ Q f &./.iXSXSXSXSXSXSXSXSXSXSXSXSXSXSX",
"SXSXSXSXSXSXSXSXSXSXSXSXd p c.K.c.N SXSXv 3.| - %X=X: * = F 1 #X'.t ^  .[ ) ~ - & C B d.d.4 SXSXSXSXSXSXSXSXSXSXSXSXSXSX",
"SXSXSXSXSXSXSXSXSXSXSXp F.Z.S.P.S.f.8 ,.[ ` [ / %X&X> $ %.).*.OXR.Y ) L W g j s 5X2 &.U.d.SXSXSXSXSXSXSXSXSXSXSXSXSXSXSX",
"SXSXSXSXSXSXSXSXSXs d.Z.S.P.P.Y.H.a.' ` [ } [ ] 8 *Xs & $.x.* $ G K ,.Z -XC 0 v -Xe ; m.R.SXSXSXSXSXSXSXSXSXSXSXSXSXSXSX",
"SXSXSXSXSXSXSXSXm G.A.P.K.V.Y.f.< ' +.| }  .] } R 2 q 0 ; # + E ,.-Xz n - 2X8X7X0X0XB <.N SXSXSXSXSXSXSXSXSXSXSXSXSXSXSX",
"SXSXSXSXSXSXSXSXR.A.P.P.P.P.d.I { O.] } ] } } } } } _ L F e Z V z w R ( K <XqXqXqX0XtXtXSXSXSXSXSXSXSXSXSXSXSXSXSXSXSXSX",
"SXSXSXSXSXSXSXSXC p f.U.K.p.P [ ..| O...] } X. .) ) ~ w C 5Xn W K ) ] X.~ <X9X8X8X7Xj C SXSXSXSXSXSXSXSXSXSXSXSXSXSXSXSX",
"SXSXSXSXSXSXSXSXSXSXd.D.a.P +.O...U Y U ..[ ( K ,.b 3XV w F J [ [ } o. .D q.wX9X7X8Xj SXSXSXSXSXSXSXSXSXSXSXSXSXSXSXSXSX",
"SXSXSXSXSXSXSXSXSXSXR.p.~ +.' Y I , s.1 U ~ n V -Xn W G ( } X.X... .H S v V wX8X8X8XV SXSXSXSXSXSXSXSXSXSXSXSXSXSXSXSXSX",
"SXSXSXSXSXSXSXSXSXSXSXd Y P , s.F.K.S.c.% z V w R J ) X.o.o.X.) G # eXBXbX8.8X8X8X9Xl SXSXSXSXSXSXSXSXSXSXSXSXSXSXSXSXSX",
"SXSXSXSXSXSXSXSXSXSXSXt a.F.V.D.U.U.Y.s.P ! K ) ] X.o.o.) H D e uXmXCXCXMX7.qX7X8XqXV SXSXSXSXSXSXSXSXSXSXSXSXSXSXSXSXSX",
"SXSXSXSXSXSXSXSXSXSXR.Z.S.U.P.U.I.F.p.; ] ..X.o.X.( H D - eXvXVXCXCXCXCXbX8.9X7X8X7Xl SXSXSXSXSXSXSXSXSXSXSXSXSXSXSXSXSX",
"SXSXSXSXSXSXSXSXSXSX(.S.P.P.K.f.a.- Y X.X.) H D # w rXvXVXCXCXCXCXCXCXmXeXk l 6 6 w.M SXSXSXSXSXSXSXSXSXSXSXSXSXSXSXSXSX",
"SXSXSXSXSXSXSXSXSXSXR.Z.H.g.1 % D H G D # e eXaXmXAXCXCXCXCXCXCXAXmXrX0 v SXh rXZ SXSXSXSXSXSXSXSXSXSXSXSXSXSXSXSXSXSXSX",
"SXSXSXSXSXSXSXSXSXSXN E.0 X % ,.2.rXaXbXBXZXCXCXCXCXCXCXZXAXVXaXeX9 0 SXSXSXC NXuXSXSXSXSXSXSXSXSXSXSXSXSXSXSXSXSXSXSXSX",
"SXSXSXSXSXSXSXSXSXSXSXSXSXA h pXbXVXZXCXCXZXAXVXVXNXMXvXuXeX0 SXSXSXSXSXSXSXZ mXrXk V SXSXSXSXSXSXSXSXSXSXSXSXSXSXSXSXSX",
"SXSXSXSXSXSXSXSXSXSXSXSXSXSXSXSXt v v v v C M Z c f 9 SXSXSXSXSXSXC n v c l j MXtX5 1Xm SXSXSXSXSXSXSXSXSXSXSXSXSXSXSXSX",
"SXSXSXSXSXSXSXSXSXSXSXSXSXSXSXSXSXSXSXSXh c SXSXSXSXSXSXSXSXSXn m j e.2X4X>Xx nXrX-.e.w.SXSXSXSXSXSXSXSXSXSXSXSXSXSXSXSX",
"SXSXSXSXSXSXSXSXSXSXSXSXSXSXSXSXSXSXSXSXSX5XSXSXSXSXSXb c m e.3X2X7.6 k a i.<.nXyXn.e.e.SXSXSXSXSXSXSXSXSXSXSXSXSXSXSXSX",
"SXSXSXSXSXSXSXSXSXSXSXSXSXSXSXSXSXSXSXSXSXZ f f c m t.3X2X,X7.6 r a.u.l.K.A.Q.nXyXn.e.w.SXSXSXSXSXSXSXSXSXSXSXSXSXSXSXSX",
"SXSXSXSXSXSXSXSXSXSXSXSXSXSXSXSXSXSXSXSXn v w.3X1X>X8.6 i a.g.n.N.Y.J.j.b.D.W.nXyXk.e.e.SXSXSXSXSXSXSXSXSXSXSXSXSXSXSXSX",
"SXSXSXSXSXSXSXSXSXSXSXSXSXSXSXSXn m w.3X1X<X7.6 i p.u.n.C.Z.N.K.$XJ.:.>.;.C.Q.mXyXk.e.w.SXSXSXSXSXSXSXSXSXSXSXSXSXSXSXSX",
"SXSXSXSXSXSXSXSXSXSXSXSXSXSXSXm 1X<X7.k r 1 h.k.l.J.{.{.XX}.fXdXsXb.5.jX6.z.d.aX^.n.e.t.SXSXSXSXSXSXSXSXSXSXSXSXSXSXSXSX",
"SXSXSXSXSXSXSXSXSXSXSXSXSXSXSX3Xw.&.i.k.`. XgXgXfXsX:XkXhXsXkXhX}.J.:.' O.J.H.a f.B.q.t.SXSXSXSXSXSXSXSXSXSXSXSXSXSXSXSX",
"SXSXSXSXSXSXSXSXSXSXSXSXSXSXSX,Xs.D.T.A.XXkXjXkXsXfX}.|. X Xc.L.J.I.v.:.b.P.P.D.U.C.q.t.SXSXSXSXSXSXSXSXSXSXSXSXSXSXSXSX",
"SXSXSXSXSXSXSXSXSXSXSXSXSXSXSX,Xd.A.B.M.`.}.b.b.v.z.C.N.N.N.M.M.N.B.B.V.B.B.B.V.B.m.q.t.SXSXSXSXSXSXSXSXSXSXSXSXSXSXSXSX",
"SXSXSXSXSXSXSXSXSXSXSXSXSXSXSX3Xl y u u r r 0.0.9.9.9.9.u u u u u y u 9.y y y y 9.i r.z SXSXSXSXSXSXSXSXSXSXSXSXSXSXSXSX",
"SXSXSXSXSXSXSXSXSXSXSXSXSXSXSX3X6X1X1X4X6X2X2X1X1X4X1X1X4X1X1X1X1X1X1X4X2X1X1X1X1X1X7Xc SXSXSXSXSXSXSXSXSXSXSXSXSXSXSXSX",
"SXSXSXSXSXSXSXSXSXSXSXSXSXSXSXSXn M c M M M M M b M b b b b b M c b M b c b b M M c b SXSXSXSXSXSXSXSXSXSXSXSXSXSXSXSXSX",
"SXSXSXSXSXSXSXSXSXSXSXSXSXSXSXSXSXSXSXSXSXSXSXSXSXSXSXSXSXSXSXSXSXSXSXSXSXSXSXSXSXSXSXSXSXSXSXSXSXSXSXSXSXSXSXSXSXSXSXSX",
"SXSXSXSXSXSXSXSXSXSXSXSXSXSXSXSXSXSXSXSXSXSXSXSXSXSXSXSXSXSXSXSXSXSXSXSXSXSXSXSXSXSXSXSXSXSXSXSXSXSXSXSXSXSXSXSXSXSXSXSX",
"SXSXSXSXSXSXSXSXSXSXSXSXSXSXSXSXSXSXSXSXSXSXSXSXSXSXSXSXSXSXSXSXSXSXSXSXSXSXSXSXSXSXSXSXSXSXSXSXSXSXSXSXSXSXSXSXSXSXSXSX",
"SXSXSXSXSXSXSXSXSXSXSXSXSXSXSXSXSXSXSXSXSXSXSXSXSXSXSXSXSXSXSXSXSXSXSXSXSXSXSXSXSXSXSXSXSXSXSXSXSXSXSXSXSXSXSXSXSXSXSXSX",
"SXSXSXSXSXSXSXSXSXSXSXSXSXSXSXSXSXSXSXSXSXSXSXSXSXSXSXSXSXSXSXSXSXSXSXSXSXSXSXSXSXSXSXSXSXSXSXSXSXSXSXSXSXSXSXSXSXSXSXSX"
};
